{"glyphs":{"0":{"ha":1013,"x_min":40,"x_max":974,"o":"m 40 485 q 40 610 40 485 q 152 853 40 736 q 503 971 264 971 q 858 854 743 971 q 974 486 974 738 q 860 111 974 235 q 506 -12 746 -12 q 153 110 265 -12 q 40 485 40 233 m 458 447 l 550 447 q 590 486 590 447 q 550 525 590 525 l 458 525 q 419 486 419 525 q 458 447 419 447 z "},"1":{"ha":558,"x_min":40,"x_max":518,"o":"m 40 0 l 40 840 l 518 960 l 518 0 l 40 0 z "},"2":{"ha":924,"x_min":40,"x_max":883,"o":"m 883 0 l 40 0 l 40 340 l 276 467 l 276 499 q 76 468 138 488 l 54 461 l 54 904 q 230 951 107 929 q 463 974 353 974 q 789 896 694 974 q 883 675 883 818 q 830 505 883 561 q 669 410 776 449 l 883 410 l 883 0 z "},"3":{"ha":946,"x_min":40,"x_max":906,"o":"m 888 674 q 871 575 888 619 q 814 493 844 506 q 846 468 826 489 q 876 426 865 447 q 906 282 906 372 q 419 -12 906 -12 q 208 5 303 -12 q 76 39 113 22 l 40 57 l 69 378 q 199 357 129 357 q 301 363 269 357 q 347 376 332 368 q 379 413 374 392 l 153 410 l 153 504 l 379 500 q 308 550 379 533 q 239 556 281 556 q 113 544 160 556 l 99 540 l 42 897 q 90 918 58 906 q 235 951 121 931 q 479 971 349 971 q 787 894 686 971 q 888 674 888 817 z "},"4":{"ha":985,"x_min":40,"x_max":965,"o":"m 375 125 l 40 125 l 40 440 l 354 960 l 854 960 l 854 511 l 965 511 l 965 125 l 854 125 l 854 0 l 375 0 l 375 125 m 500 389 l 500 511 l 481 511 l 426 389 l 500 389 z "},"5":{"ha":928,"x_min":40,"x_max":888,"o":"m 281 354 q 343 392 343 354 q 306 428 343 418 q 181 439 268 439 l 88 439 l 121 960 l 878 960 l 878 586 l 624 586 l 618 550 q 697 540 669 544 q 767 519 725 535 q 831 480 810 503 q 870 413 853 457 q 888 310 888 369 q 782 73 888 158 q 449 -12 676 -12 q 231 6 333 -12 q 85 42 129 24 l 40 60 l 71 406 q 281 354 149 354 z "},"6":{"ha":929,"x_min":40,"x_max":910,"o":"m 618 581 q 486 564 539 581 l 486 532 q 616 549 540 549 q 755 532 692 549 q 851 480 818 515 q 897 400 885 444 q 910 290 910 356 q 486 -12 910 -12 q 148 111 256 -12 q 40 488 40 235 q 169 856 40 740 q 569 971 297 971 q 746 956 664 971 q 863 928 828 942 l 897 914 l 840 544 q 618 581 758 581 m 449 415 l 449 357 q 460 329 449 340 q 489 318 472 318 q 528 357 528 318 l 528 415 q 489 454 528 454 q 460 443 472 454 q 449 415 449 432 z "},"7":{"ha":849,"x_min":50,"x_max":828,"o":"m 50 513 l 50 960 l 828 960 l 828 550 l 622 0 l 54 0 l 260 513 l 50 513 z "},"8":{"ha":981,"x_min":40,"x_max":942,"o":"m 163 496 q 65 689 65 561 q 239 943 65 889 q 466 974 336 974 q 666 963 596 974 q 797 922 736 951 q 915 688 915 865 q 869 542 915 589 q 817 496 838 507 q 914 418 886 469 q 942 282 942 367 q 507 -12 942 -12 l 475 -12 q 40 282 40 -12 q 163 496 40 450 m 451 569 l 451 514 q 490 475 451 475 q 519 486 507 475 q 531 514 531 497 l 531 569 q 519 599 531 588 q 490 610 507 610 q 451 569 451 610 m 451 379 l 451 357 q 490 318 451 318 q 519 329 507 318 q 531 357 531 340 l 531 379 q 519 408 531 397 q 490 419 507 419 q 462 408 472 419 q 451 379 451 397 z "},"9":{"ha":929,"x_min":40,"x_max":910,"o":"m 340 347 q 471 364 418 347 l 471 396 q 364 379 417 379 q 112 450 183 379 q 40 669 40 521 q 463 971 40 971 q 802 848 694 971 q 910 472 910 725 q 411 -12 910 -12 q 219 5 308 -12 q 92 39 131 22 l 54 57 l 101 389 q 340 347 185 347 m 415 568 l 415 511 q 426 482 415 493 q 454 471 438 471 q 494 511 494 471 l 494 568 q 483 597 494 586 q 456 608 472 608 q 427 597 439 608 q 415 568 415 586 z "}," ":{"ha":397,"x_min":0,"x_max":0,"o":""},"!":{"ha":596,"x_min":50,"x_max":546,"o":"m 471 338 l 128 338 l 50 947 l 546 947 l 471 338 m 207 294 l 388 294 q 504 253 464 294 q 544 140 544 213 q 504 26 544 67 q 388 -14 464 -14 l 207 -14 q 90 26 129 -14 q 50 140 50 67 q 90 253 50 213 q 207 294 131 294 z "},"\"":{"ha":717,"x_min":50,"x_max":667,"o":"m 393 576 l 374 1029 l 667 1029 l 647 576 l 393 576 m 69 576 l 50 1029 l 343 1029 l 324 576 l 69 576 z "},"#":{"ha":1151,"x_min":65,"x_max":1086,"o":"m 106 813 l 264 813 l 286 942 l 594 942 l 569 813 l 701 813 l 724 942 l 1031 942 l 1007 813 l 1086 813 l 1067 500 l 953 500 l 946 454 l 1067 454 l 1047 143 l 892 143 l 868 0 l 560 0 l 583 143 l 454 143 l 431 0 l 124 0 l 147 143 l 65 143 l 85 454 l 203 454 l 211 500 l 85 500 l 106 813 m 647 500 l 517 500 l 508 454 l 639 454 l 647 500 z "},"$":{"ha":893,"x_min":32,"x_max":874,"o":"m 356 340 l 356 375 q 232 391 283 379 q 133 431 181 403 q 36 646 36 486 q 272 953 36 893 l 260 1078 l 608 1078 l 596 967 q 817 931 743 956 l 840 922 l 840 526 q 574 568 729 568 l 574 532 q 810 463 746 518 q 874 293 874 407 q 596 1 874 63 l 608 -110 l 260 -110 l 269 -8 q 56 32 132 6 l 32 40 l 32 389 q 356 340 143 340 z "},"%":{"ha":1810,"x_min":40,"x_max":1769,"o":"m 1172 1021 l 983 -46 l 636 -46 l 826 1021 l 1172 1021 m 1108 340 q 1108 430 1108 340 q 1188 606 1108 519 q 1437 693 1268 693 q 1688 606 1606 693 q 1769 340 1769 519 q 1689 74 1769 161 q 1438 -12 1608 -12 q 1188 74 1268 -12 q 1108 340 1108 161 m 40 619 q 40 708 40 619 q 120 884 40 797 q 369 971 200 971 q 619 884 538 971 q 701 619 701 797 q 620 353 701 440 q 369 267 539 267 q 120 353 200 267 q 40 619 40 440 m 350 581 l 435 581 q 463 592 451 581 q 475 620 475 603 q 463 649 475 638 q 435 660 451 660 l 350 660 q 322 649 333 660 q 310 620 310 638 q 322 592 310 603 q 350 581 333 581 m 1417 301 l 1501 301 q 1530 313 1518 301 q 1542 342 1542 325 q 1530 371 1542 360 q 1501 382 1518 382 l 1417 382 q 1388 371 1400 382 q 1376 342 1376 360 q 1388 313 1376 325 q 1417 301 1400 301 z "},"&":{"ha":1347,"x_min":40,"x_max":1307,"o":"m 549 -12 l 475 -12 q 40 282 40 -12 q 54 372 40 332 q 84 431 68 411 q 122 465 100 451 q 172 486 151 483 q 85 674 85 556 q 177 899 85 828 q 497 971 269 971 q 816 888 724 971 q 908 614 908 806 l 929 614 l 929 803 l 1307 803 l 1307 625 q 1275 434 1307 504 q 1136 306 1243 364 l 1276 0 l 860 0 l 821 106 q 794 67 815 89 q 744 28 772 44 q 549 -12 675 -12 m 471 569 l 471 521 q 483 492 471 503 q 511 481 494 481 q 550 521 550 481 l 550 569 q 511 610 550 610 q 483 599 494 610 q 471 569 471 588 m 471 385 l 471 357 q 483 329 471 340 q 511 318 494 318 q 550 357 550 318 l 550 385 q 511 425 550 425 q 483 414 494 425 q 471 385 471 403 z "},"'":{"ha":354,"x_min":29,"x_max":324,"o":"m 50 576 l 29 1029 l 324 1029 l 304 576 l 50 576 z "},"(":{"ha":751,"x_min":50,"x_max":711,"o":"m 69 256 q 50 481 50 363 q 69 706 50 600 q 114 878 88 813 q 211 1061 171 1017 l 231 1082 l 711 1082 q 695 1051 706 1071 q 658 969 685 1032 q 613 839 632 906 q 560 494 560 658 q 598 177 560 329 q 674 -53 636 25 l 711 -129 l 231 -129 q 69 256 114 10 z "},")":{"ha":751,"x_min":40,"x_max":701,"o":"m 40 -129 q 190 479 190 171 q 153 781 190 631 q 78 1007 115 932 l 40 1082 l 521 1082 q 581 998 547 1056 q 639 877 615 940 q 682 707 663 814 q 701 481 701 600 q 683 257 701 363 q 638 83 664 151 q 539 -107 583 -56 l 521 -129 l 40 -129 z "},"*":{"ha":765,"x_min":29,"x_max":735,"o":"m 106 943 l 249 890 l 232 1054 l 521 1054 l 504 886 l 660 943 l 735 681 l 600 664 l 688 525 l 435 393 l 385 542 l 336 393 l 83 525 l 169 657 l 29 681 l 106 943 z "},"+":{"ha":821,"x_min":50,"x_max":771,"o":"m 260 858 l 563 858 l 563 638 l 771 638 l 771 336 l 563 336 l 563 138 l 260 138 l 260 336 l 50 336 l 50 638 l 260 638 l 260 858 z "},",":{"ha":610,"x_min":28,"x_max":582,"o":"m 28 228 q 91 400 28 347 q 303 453 154 453 q 517 399 453 453 q 582 228 582 346 q 563 61 582 149 q 524 -75 543 -26 l 504 -124 l 92 -124 l 143 13 q 28 228 28 56 z "},"-":{"ha":694,"x_min":40,"x_max":656,"o":"m 656 304 l 40 304 l 40 636 l 656 636 l 656 304 z "},".":{"ha":610,"x_min":28,"x_max":582,"o":"m 303 -12 q 228 -12 303 -12 q 90 42 153 -12 q 28 222 28 97 q 91 400 28 347 q 303 453 154 453 q 517 399 453 453 q 582 222 582 346 q 518 42 582 97 q 303 -12 454 -12 z "},"/":{"ha":560,"x_min":13,"x_max":549,"o":"m 549 1021 l 360 -46 l 13 -46 l 203 1021 l 549 1021 z "},":":{"ha":653,"x_min":50,"x_max":604,"o":"m 326 -12 q 250 -12 326 -12 q 113 42 175 -12 q 50 222 50 97 q 113 400 50 347 q 326 453 176 453 q 540 399 475 453 q 604 222 604 346 q 540 42 604 97 q 326 -12 476 -12 m 326 507 q 250 507 326 507 q 113 561 175 507 q 50 741 50 615 q 113 919 50 867 q 326 971 176 971 q 540 918 475 971 q 604 741 604 865 q 540 562 604 617 q 326 507 476 507 z "},";":{"ha":657,"x_min":50,"x_max":608,"o":"m 330 507 q 255 507 330 507 q 117 562 179 507 q 54 742 54 617 q 117 919 54 867 q 330 971 181 971 q 544 918 479 971 q 608 741 608 865 q 544 562 608 617 q 330 507 481 507 m 50 228 q 113 400 50 347 q 326 453 176 453 q 540 399 475 453 q 604 228 604 346 q 585 61 604 149 q 546 -75 565 -26 l 526 -124 l 114 -124 l 165 13 q 50 228 50 56 z "},"<":{"ha":688,"x_min":40,"x_max":647,"o":"m 40 324 l 40 578 l 511 844 l 647 489 l 431 451 l 647 413 l 511 57 l 40 324 z "},"=":{"ha":808,"x_min":50,"x_max":758,"o":"m 758 522 l 50 522 l 50 814 l 758 814 l 758 522 m 758 157 l 50 157 l 50 449 l 758 449 l 758 157 z "},">":{"ha":688,"x_min":40,"x_max":647,"o":"m 647 578 l 647 324 l 176 57 l 40 413 l 256 451 l 40 489 l 176 844 l 647 578 z "},"?":{"ha":660,"x_min":24,"x_max":650,"o":"m 211 536 q 163 574 211 574 q 82 550 114 574 l 24 890 q 217 961 72 939 q 342 971 275 971 q 580 910 510 971 q 650 738 650 849 q 628 642 650 688 q 582 566 607 596 q 535 485 557 536 q 514 374 514 433 l 514 342 l 129 342 l 129 368 q 142 433 129 404 q 169 478 154 463 q 211 536 211 514 m 231 296 l 411 296 q 528 255 488 296 q 568 142 568 214 q 528 28 568 69 q 411 -12 488 -12 l 231 -12 q 114 28 154 -12 q 74 142 74 69 q 114 255 74 214 q 231 296 154 296 z "},"@":{"ha":997,"x_min":19,"x_max":979,"o":"m 558 713 q 364 626 447 713 q 281 364 281 540 q 340 170 281 247 q 511 93 400 93 q 613 106 569 93 q 669 133 656 119 l 683 147 l 776 -85 q 663 -125 746 -107 q 494 -143 581 -143 q 142 -28 265 -143 q 19 355 19 88 q 158 791 19 622 q 558 960 296 960 q 876 860 772 960 q 979 601 979 761 q 967 440 979 507 l 953 374 q 960 358 953 363 q 979 357 967 354 l 979 175 q 821 131 929 131 q 681 211 713 131 q 631 158 671 183 q 508 131 588 131 q 374 192 429 131 q 319 383 319 254 q 392 595 319 513 q 572 678 465 678 q 643 669 611 678 q 689 653 675 661 l 701 643 q 690 665 701 650 q 665 689 679 679 q 558 713 628 713 m 667 465 q 638 476 664 476 q 597 451 613 476 q 582 383 582 425 q 615 340 582 340 q 646 351 635 340 q 663 451 649 404 l 667 465 z "},"A":{"ha":1039,"x_min":19,"x_max":1019,"o":"m 558 0 l 550 149 l 465 149 l 457 0 l 19 0 q 76 467 33 228 q 156 833 119 707 l 190 960 l 849 960 q 888 821 864 910 q 957 480 911 732 q 1019 0 1003 228 l 558 0 m 486 493 l 475 276 l 540 276 l 531 493 l 486 493 z "},"B":{"ha":1044,"x_min":40,"x_max":1025,"o":"m 40 0 l 40 960 l 549 960 q 897 890 789 960 q 1006 667 1006 821 q 992 567 1006 613 q 964 501 978 521 l 950 482 q 1017 367 997 458 q 1025 281 1025 329 q 945 75 1025 150 q 706 0 865 0 l 40 0 m 597 481 l 597 553 q 586 581 597 571 q 558 592 575 592 l 518 592 l 518 481 l 597 481 m 636 413 l 518 413 l 518 333 l 636 333 q 663 345 651 333 q 675 374 675 357 q 664 401 675 390 q 636 413 653 413 z "},"C":{"ha":974,"x_min":40,"x_max":933,"o":"m 569 517 l 569 440 q 667 438 597 438 q 900 446 797 438 l 933 449 l 933 33 q 551 -14 799 -14 q 172 113 303 -14 q 40 488 40 239 q 169 856 40 738 q 554 974 299 974 q 756 961 661 974 q 892 936 851 949 l 933 924 l 933 496 q 569 517 813 517 z "},"D":{"ha":1058,"x_min":40,"x_max":1019,"o":"m 40 960 l 542 960 q 897 849 774 960 q 1019 486 1019 738 q 522 0 1019 0 l 40 0 l 40 960 m 507 556 l 507 315 l 546 315 q 574 326 563 315 q 586 356 586 338 l 586 517 q 574 544 586 533 q 546 556 563 556 l 507 556 z "},"E":{"ha":869,"x_min":40,"x_max":831,"o":"m 40 960 l 818 960 l 818 556 l 518 556 l 518 500 l 818 500 l 818 413 l 518 413 l 518 357 l 831 357 l 831 0 l 40 0 l 40 960 z "},"F":{"ha":818,"x_min":19,"x_max":799,"o":"m 19 960 l 799 960 l 799 556 l 499 556 l 499 500 l 799 500 l 799 306 l 499 306 l 499 0 l 19 0 l 19 960 z "},"G":{"ha":993,"x_min":40,"x_max":953,"o":"m 569 526 l 569 357 l 625 357 l 625 453 l 953 465 l 953 0 q 553 -12 804 -12 q 172 114 303 -12 q 40 489 40 240 q 169 854 40 738 q 554 971 299 971 q 753 961 656 971 q 897 942 850 951 l 943 932 l 943 526 l 569 526 z "},"H":{"ha":1072,"x_min":40,"x_max":1033,"o":"m 576 526 l 576 960 l 1033 960 l 1033 0 l 576 0 l 576 324 l 496 324 l 496 0 l 40 0 l 40 960 l 496 960 l 496 526 l 576 526 z "},"I":{"ha":558,"x_min":40,"x_max":518,"o":"m 40 0 l 40 960 l 518 960 l 518 0 l 40 0 z "},"J":{"ha":699,"x_min":40,"x_max":660,"o":"m 338 -14 q 173 -1 247 -14 q 69 24 99 11 l 40 36 l 40 383 q 181 360 96 361 l 181 960 l 660 960 l 660 263 q 581 54 660 122 q 338 -14 503 -14 z "},"K":{"ha":1114,"x_min":40,"x_max":1094,"o":"m 518 264 l 518 0 l 40 0 l 40 960 l 518 960 l 518 526 l 549 526 l 608 960 l 1094 960 l 925 481 l 1094 0 l 606 0 l 549 264 l 518 264 z "},"L":{"ha":699,"x_min":40,"x_max":660,"o":"m 40 960 l 518 960 l 518 357 l 660 357 l 660 0 l 40 0 l 40 960 z "},"M":{"ha":1197,"x_min":40,"x_max":1158,"o":"m 1158 960 l 1158 0 l 679 0 l 679 347 l 618 186 l 582 186 l 518 347 l 518 0 l 40 0 l 40 960 l 518 960 l 582 775 l 618 775 l 679 960 l 1158 960 z "},"N":{"ha":1021,"x_min":40,"x_max":981,"o":"m 40 960 l 465 960 l 553 674 l 553 960 l 981 960 l 981 0 l 553 0 l 479 281 l 479 0 l 40 0 l 40 960 z "},"O":{"ha":1113,"x_min":19,"x_max":1092,"o":"m 499 974 l 614 974 q 978 856 864 974 q 1092 485 1092 738 q 977 109 1092 232 q 614 -14 863 -14 l 499 -14 q 135 109 250 -14 q 19 485 19 232 q 134 856 19 738 q 499 974 249 974 m 517 517 l 517 356 q 527 326 517 338 q 555 315 538 315 q 584 326 572 315 q 596 356 596 338 l 596 517 q 584 544 596 533 q 555 556 572 556 q 527 544 538 556 q 517 517 517 533 z "},"P":{"ha":1047,"x_min":40,"x_max":1026,"o":"m 40 0 l 40 960 l 544 960 q 910 878 793 960 q 1026 597 1026 797 q 938 358 1026 438 q 690 274 861 290 q 518 267 618 267 l 518 0 l 40 0 m 518 413 l 558 413 q 586 424 575 413 q 597 453 597 435 l 597 517 q 586 545 597 535 q 558 556 575 556 l 518 556 l 518 413 z "},"Q":{"ha":1081,"x_min":40,"x_max":1047,"o":"m 554 -14 l 518 -14 q 155 109 269 -14 q 40 485 40 232 q 155 856 40 738 q 518 974 269 974 l 554 974 q 919 856 804 974 q 1033 486 1033 738 q 1022 353 1033 415 q 997 264 1010 290 l 985 236 l 1047 222 l 988 -111 q 773 -77 847 -111 q 675 -4 699 -43 q 554 -14 610 -14 m 496 517 l 496 356 q 507 326 496 338 q 535 315 518 315 q 565 326 553 315 q 576 356 576 338 l 576 517 q 565 544 576 533 q 535 556 553 556 q 507 544 518 556 q 496 517 496 533 z "},"R":{"ha":1075,"x_min":40,"x_max":1054,"o":"m 518 281 l 518 0 l 40 0 l 40 960 l 544 960 q 910 878 793 960 q 1026 597 1026 797 q 928 374 1026 446 q 1054 0 1011 225 l 597 0 q 558 247 586 140 l 549 281 l 518 281 m 518 393 l 558 393 q 586 404 575 393 q 597 433 597 415 l 597 517 q 586 545 597 535 q 558 556 575 556 l 518 556 l 518 393 z "},"S":{"ha":960,"x_min":40,"x_max":939,"o":"m 511 974 q 724 959 625 974 q 867 929 824 944 l 908 914 l 908 517 q 600 568 796 568 l 600 532 q 860 460 781 518 q 939 283 939 401 q 824 64 939 142 q 468 -14 708 -14 q 225 2 331 -14 q 83 33 119 18 l 46 50 l 46 396 q 83 381 58 390 q 195 356 108 371 q 382 340 282 340 l 382 374 q 126 446 213 386 q 40 654 40 506 q 158 888 40 803 q 511 974 276 974 z "},"T":{"ha":936,"x_min":40,"x_max":896,"o":"m 40 556 l 40 960 l 896 960 l 896 556 l 726 556 l 726 0 l 207 0 l 207 556 l 40 556 z "},"U":{"ha":1072,"x_min":40,"x_max":1033,"o":"m 576 960 l 1033 960 l 1033 426 q 919 94 1033 201 q 554 -14 804 -14 l 518 -14 q 155 94 269 -14 q 40 426 40 203 l 40 960 l 496 960 l 496 375 q 507 347 496 357 q 535 336 518 336 q 565 347 553 336 q 576 375 576 358 l 576 960 z "},"V":{"ha":1040,"x_min":19,"x_max":1021,"o":"m 526 397 l 556 397 l 588 960 l 1021 960 l 849 0 l 197 0 l 19 960 l 490 960 l 526 397 z "},"W":{"ha":1363,"x_min":19,"x_max":1343,"o":"m 1210 0 l 715 0 l 693 264 l 664 264 l 643 0 l 156 0 l 19 960 l 443 960 l 479 504 l 508 504 l 542 936 l 822 936 l 860 504 l 890 504 l 925 960 l 1343 960 l 1210 0 z "},"X":{"ha":1040,"x_min":19,"x_max":1021,"o":"m 532 324 l 503 324 l 471 0 l 19 0 l 107 494 l 19 960 l 468 960 l 503 556 l 536 556 l 567 960 l 1021 960 l 928 486 l 1021 0 l 568 0 l 532 324 z "},"Y":{"ha":1104,"x_min":19,"x_max":1085,"o":"m 813 0 l 292 0 l 292 226 q 238 250 253 243 q 188 279 222 257 q 138 325 154 301 q 79 479 92 388 l 19 960 l 511 960 l 546 485 l 576 485 l 606 960 l 1085 960 l 1025 479 q 967 325 1013 388 q 916 279 950 301 q 867 250 882 257 q 813 226 851 243 l 813 0 z "},"Z":{"ha":914,"x_min":40,"x_max":874,"o":"m 874 0 l 47 0 l 47 357 l 260 556 l 40 556 l 40 960 l 869 960 l 869 554 l 665 357 l 874 357 l 874 0 z "},"[":{"ha":747,"x_min":50,"x_max":647,"o":"m 647 -115 l 50 -115 l 50 1050 l 647 1050 l 647 689 l 489 697 l 489 239 l 647 246 l 647 -115 z "},"\\":{"ha":560,"x_min":13,"x_max":549,"o":"m 211 -97 l 13 1021 l 350 1072 l 549 -46 l 211 -97 z "},"]":{"ha":747,"x_min":99,"x_max":697,"o":"m 99 1050 l 697 1050 l 697 -115 l 99 -115 l 99 246 l 258 239 l 258 697 l 99 689 l 99 1050 z "},"^":{"ha":753,"x_min":50,"x_max":703,"o":"m 392 726 l 369 939 l 342 726 l 50 726 l 208 1243 l 539 1243 l 703 726 l 392 726 z "},"_":{"ha":493,"x_min":18,"x_max":475,"o":"m 18 -143 l 18 74 l 475 74 l 475 -143 l 18 -143 z "},"`":{"ha":542,"x_min":65,"x_max":500,"o":"m 500 999 l 65 999 l 65 1218 l 500 1179 l 500 999 z "},"a":{"ha":914,"x_min":40,"x_max":883,"o":"m 856 525 l 849 354 l 883 356 l 883 40 q 797 3 858 19 q 682 -14 736 -14 q 596 -4 628 -14 q 549 17 564 6 q 525 44 533 29 q 513 82 513 67 q 269 -14 436 -14 q 40 181 40 -14 q 129 347 40 297 q 440 406 218 396 q 333 454 440 454 q 195 436 261 454 q 100 400 129 418 l 69 382 l 69 747 q 107 772 82 757 q 225 810 132 786 q 429 835 318 835 q 753 760 651 835 q 856 525 856 685 m 463 304 l 463 360 l 383 338 l 383 304 q 395 275 383 286 q 424 264 407 264 q 452 275 442 264 q 463 304 463 286 z "},"b":{"ha":946,"x_min":40,"x_max":906,"o":"m 40 1035 l 454 1035 l 454 860 l 451 800 q 497 826 458 817 q 581 835 536 835 q 820 724 735 835 q 906 413 906 614 q 817 103 906 213 q 564 -6 728 -6 q 383 49 453 -6 q 356 79 368 61 l 326 0 l 40 0 l 40 1035 m 433 421 l 433 304 q 444 275 433 286 q 472 264 454 264 q 501 275 489 264 q 513 304 513 286 l 513 421 q 501 449 513 438 q 472 461 489 461 q 444 449 456 461 q 433 421 433 438 z "},"c":{"ha":824,"x_min":40,"x_max":785,"o":"m 785 28 q 467 -14 694 -14 q 140 90 239 -14 q 40 414 40 194 q 151 734 40 633 q 485 835 263 835 q 660 821 585 835 q 760 793 735 807 l 785 779 l 785 413 l 500 413 l 500 351 q 585 347 525 347 q 764 356 685 347 l 785 357 l 785 28 z "},"d":{"ha":946,"x_min":40,"x_max":906,"o":"m 906 0 l 556 0 l 542 101 q 519 64 536 86 q 482 26 501 42 q 350 -14 431 -14 q 122 97 204 -14 q 40 408 40 208 q 124 721 40 607 q 351 835 207 835 q 431 824 396 835 q 478 804 465 814 l 490 794 l 490 1035 l 906 1035 l 906 0 m 433 421 l 433 304 q 444 275 433 286 q 472 264 454 264 q 501 275 489 264 q 513 304 513 286 l 513 421 q 501 449 513 438 q 472 461 489 461 q 444 449 456 461 q 433 421 433 438 z "},"e":{"ha":883,"x_min":40,"x_max":844,"o":"m 40 409 q 40 515 40 409 q 137 728 40 621 q 453 835 233 835 q 758 746 672 835 q 844 454 844 657 l 838 347 l 454 347 l 454 300 q 556 292 489 292 q 785 304 697 292 l 814 308 l 814 47 q 778 30 803 40 q 663 3 754 19 q 458 -14 571 -14 q 138 92 236 -14 q 40 409 40 197 m 433 471 l 433 417 l 513 417 l 513 471 q 501 500 513 489 q 472 511 489 511 q 444 500 454 511 q 433 471 433 489 z "},"f":{"ha":636,"x_min":29,"x_max":596,"o":"m 60 803 q 354 1057 60 1057 q 492 1048 432 1057 q 575 1031 553 1039 l 596 1022 l 596 744 l 449 744 l 449 683 l 596 683 l 596 308 l 496 308 l 496 0 l 83 0 l 83 308 l 29 308 l 29 651 l 92 683 q 60 803 60 729 z "},"g":{"ha":893,"x_min":19,"x_max":854,"o":"m 581 246 l 642 246 q 854 69 854 246 q 788 -76 854 -24 q 553 -129 721 -129 l 324 -129 q 84 -83 149 -129 q 19 39 19 -37 q 181 193 19 193 l 211 193 q 168 211 188 197 q 149 246 149 225 q 217 300 149 288 q 79 358 131 300 q 28 528 28 417 q 108 752 28 682 q 368 822 188 822 l 850 822 l 850 433 l 803 433 q 581 276 781 276 l 581 246 m 508 149 l 356 149 q 326 138 338 149 q 315 110 315 128 q 326 81 315 93 q 356 69 338 69 l 508 69 q 538 81 526 69 q 549 110 549 93 q 538 138 549 128 q 508 149 526 149 m 392 471 l 392 385 q 431 346 392 346 q 459 357 447 346 q 471 385 471 368 l 471 471 q 459 500 471 489 q 430 511 447 511 q 402 500 413 511 q 392 471 392 489 z "},"h":{"ha":946,"x_min":40,"x_max":906,"o":"m 513 0 l 513 440 q 501 469 513 457 q 472 481 489 481 q 444 469 456 481 q 433 440 433 457 l 433 0 l 40 0 l 40 1035 l 454 1035 l 454 860 l 440 740 q 460 776 446 758 q 519 815 474 794 q 632 835 565 835 q 837 760 768 835 q 906 542 906 685 l 906 0 l 513 0 z "},"i":{"ha":494,"x_min":40,"x_max":454,"o":"m 246 753 q 193 753 246 753 q 90 794 140 753 q 40 928 40 836 q 91 1060 40 1019 q 246 1100 142 1100 q 454 932 454 1100 q 403 794 454 836 q 246 753 351 753 m 40 0 l 40 721 l 454 721 l 454 0 l 40 0 z "},"j":{"ha":490,"x_min":-19,"x_max":451,"o":"m 451 125 q 375 -129 451 -46 l -19 -129 q 17 -37 1 -97 q 33 85 33 24 l 33 721 l 451 721 l 451 125 m 240 753 q 187 753 240 753 q 84 794 135 753 q 33 927 33 835 q 85 1060 33 1019 q 240 1100 136 1100 q 449 932 449 1100 q 397 794 449 836 q 240 753 344 753 z "},"k":{"ha":981,"x_min":40,"x_max":971,"o":"m 454 264 l 454 0 l 40 0 l 40 1035 l 454 1035 l 454 461 l 490 461 l 542 821 l 971 821 l 882 426 l 971 0 l 525 0 l 490 264 l 454 264 z "},"l":{"ha":507,"x_min":40,"x_max":486,"o":"m 40 204 l 40 1035 l 457 1035 l 457 357 l 486 357 l 486 15 q 281 -14 413 -14 q 95 40 150 -14 q 40 204 40 94 z "},"m":{"ha":1357,"x_min":19,"x_max":1336,"o":"m 943 0 l 943 440 q 931 469 943 457 q 903 481 919 481 q 875 469 886 481 q 864 440 864 457 l 864 0 l 493 0 l 493 440 q 481 469 493 457 q 452 481 469 481 q 424 469 435 481 q 413 440 413 457 l 413 0 l 19 0 l 19 821 l 369 821 l 383 719 q 408 757 389 735 q 450 794 428 779 q 611 835 511 835 q 838 726 774 835 q 867 767 849 747 q 938 811 885 788 q 1063 835 992 835 q 1267 760 1199 835 q 1336 542 1336 685 l 1336 0 l 943 0 z "},"n":{"ha":946,"x_min":40,"x_max":906,"o":"m 433 440 l 433 0 l 40 0 l 40 821 l 389 821 l 403 719 q 428 757 408 735 q 469 794 447 779 q 632 835 531 835 q 837 760 768 835 q 906 542 906 685 l 906 0 l 513 0 l 513 440 q 501 469 513 457 q 472 481 489 481 q 444 469 456 481 q 433 440 433 457 z "},"o":{"ha":946,"x_min":40,"x_max":906,"o":"m 500 -12 l 444 -12 q 141 88 242 -12 q 40 410 40 188 q 141 733 40 632 q 444 835 242 835 l 500 835 q 804 733 703 835 q 906 410 906 632 q 805 88 906 188 q 500 -12 704 -12 m 433 421 l 433 304 q 444 275 433 286 q 472 264 454 264 q 501 275 489 264 q 513 304 513 286 l 513 421 q 501 449 513 438 q 472 461 489 461 q 444 449 456 461 q 433 421 433 438 z "},"p":{"ha":946,"x_min":40,"x_max":906,"o":"m 567 -14 q 454 14 493 -14 l 454 -129 l 40 -129 l 40 821 l 389 821 l 403 719 q 514 822 428 793 q 594 835 550 835 q 828 716 750 835 q 906 404 906 597 q 817 99 906 211 q 567 -14 729 -14 m 433 421 l 433 304 q 444 275 433 286 q 472 264 454 264 q 501 275 489 264 q 513 304 513 286 l 513 421 q 501 449 513 438 q 472 461 489 461 q 444 449 456 461 q 433 421 433 438 z "},"q":{"ha":946,"x_min":40,"x_max":906,"o":"m 906 -129 l 490 -129 l 490 -40 l 494 19 q 365 -14 463 -14 q 125 97 210 -14 q 40 407 40 207 q 124 721 40 607 q 351 835 207 835 q 438 819 399 835 q 497 782 476 804 q 542 721 533 743 l 556 821 l 906 821 l 906 -129 m 433 421 l 433 304 q 444 275 433 286 q 472 264 454 264 q 501 275 489 264 q 513 304 513 286 l 513 421 q 501 449 513 438 q 472 461 489 461 q 444 449 456 461 q 433 421 433 438 z "},"r":{"ha":664,"x_min":40,"x_max":653,"o":"m 454 0 l 40 0 l 40 821 l 389 821 l 403 719 q 410 731 406 724 q 433 755 414 738 q 478 786 453 772 q 653 821 547 821 l 653 379 l 454 399 l 454 0 z "},"s":{"ha":821,"x_min":40,"x_max":786,"o":"m 417 835 q 615 822 526 835 q 736 797 703 810 l 768 785 l 768 438 q 486 486 674 486 l 486 453 q 722 393 658 436 q 786 236 786 350 q 701 54 786 122 q 406 -14 617 -14 q 206 -1 293 -14 q 86 24 118 11 l 54 36 l 54 338 q 174 302 93 318 q 342 286 256 286 l 342 319 q 117 388 193 333 q 40 563 40 442 q 133 760 40 685 q 417 835 226 835 z "},"t":{"ha":701,"x_min":29,"x_max":661,"o":"m 536 433 l 536 371 l 661 371 l 661 43 q 638 27 654 36 q 556 2 622 18 q 401 -14 489 -14 q 83 264 83 -14 l 83 433 l 29 433 l 29 779 q 135 846 89 797 q 197 933 181 894 l 214 974 l 563 974 l 563 821 l 661 821 l 661 433 l 536 433 z "},"u":{"ha":946,"x_min":40,"x_max":906,"o":"m 513 821 l 906 821 l 906 0 l 556 0 l 542 101 q 517 64 536 86 q 475 26 497 42 q 314 -14 414 -14 q 109 61 178 -14 q 40 278 40 136 l 40 821 l 433 821 l 433 364 q 445 335 433 347 q 474 324 457 324 q 501 335 490 324 q 513 364 513 347 l 513 821 z "},"v":{"ha":910,"x_min":19,"x_max":890,"o":"m 449 304 l 485 304 l 511 821 l 890 821 l 768 0 l 144 0 l 19 821 l 421 821 l 449 304 z "},"w":{"ha":1319,"x_min":19,"x_max":1299,"o":"m 1160 0 l 707 0 l 674 283 l 643 283 l 611 0 l 144 0 l 19 821 l 433 821 l 468 504 l 499 504 l 522 796 l 803 796 l 831 504 l 860 504 l 896 821 l 1299 821 l 1160 0 z "},"x":{"ha":950,"x_min":13,"x_max":938,"o":"m 508 0 l 463 301 l 415 0 l 13 0 l 121 393 l 14 821 l 440 821 l 490 467 l 540 821 l 938 821 l 814 393 l 938 0 l 508 0 z "},"y":{"ha":910,"x_min":19,"x_max":890,"o":"m 443 324 l 479 324 l 504 821 l 890 821 l 768 -129 l 329 -129 l 360 14 q 185 51 240 14 q 117 176 131 88 l 19 821 l 415 821 l 443 324 z "},"z":{"ha":789,"x_min":40,"x_max":749,"o":"m 749 0 l 40 0 l 40 357 l 231 453 l 40 453 l 40 821 l 749 821 l 749 453 l 554 357 l 749 357 l 749 0 z "},"{":{"ha":683,"x_min":50,"x_max":604,"o":"m 567 310 l 567 147 q 576 51 567 93 q 594 -7 586 8 l 604 -22 q 583 -62 600 -39 q 544 -101 567 -85 q 477 -130 522 -117 q 374 -143 432 -143 q 159 -74 231 -143 q 88 124 88 -6 l 88 310 q 78 406 88 364 q 60 464 69 449 l 50 479 q 88 647 88 526 l 88 836 q 159 1034 88 965 q 374 1103 231 1103 q 544 1060 490 1103 q 600 993 593 1022 l 604 981 q 567 813 567 933 l 567 647 q 557 551 567 593 q 538 494 547 510 l 528 479 q 567 310 567 431 z "},"|":{"ha":494,"x_min":40,"x_max":454,"o":"m 454 1050 l 454 -129 l 40 -129 l 40 1050 l 454 1050 z "},"}":{"ha":683,"x_min":79,"x_max":633,"o":"m 117 147 l 117 310 q 126 406 117 364 q 146 464 136 449 l 156 479 q 117 647 117 526 l 117 813 q 107 908 117 867 q 89 965 97 950 l 79 981 q 100 1021 83 997 q 139 1060 117 1044 q 206 1090 161 1076 q 310 1103 251 1103 q 524 1034 453 1103 q 596 836 596 965 l 596 647 q 605 551 596 593 q 624 494 614 510 l 633 479 q 596 310 596 431 l 596 124 q 524 -74 596 -6 q 310 -143 453 -143 q 139 -100 194 -143 q 83 -35 92 -65 l 79 -22 q 117 147 117 26 z "},"~":{"ha":721,"x_min":0,"x_max":721,"o":"m 80 570 q 92 577 80 570 q 145 594 104 583 q 240 606 186 606 q 344 587 293 606 q 414 550 394 568 l 435 531 l 611 618 l 721 435 q 687 402 713 422 q 635 369 661 382 q 472 333 564 333 q 375 351 422 333 q 306 389 328 369 l 282 407 l 111 318 l 0 503 q 33 537 10 517 q 80 570 56 557 z "},"¡":{"ha":556,"x_min":29,"x_max":526,"o":"m 107 481 l 451 481 l 526 -129 l 29 -129 l 107 481 m 368 525 l 186 525 q 69 565 110 525 q 29 678 29 606 q 69 792 29 751 q 186 832 110 832 l 368 832 q 485 792 444 832 q 525 678 525 751 q 485 565 525 606 q 368 525 444 525 z "},"¢":{"ha":824,"x_min":40,"x_max":785,"o":"m 40 417 q 297 813 40 740 l 283 971 l 632 971 l 618 826 q 769 799 726 815 l 785 793 l 785 413 l 500 413 l 500 351 q 585 347 525 347 q 764 356 685 347 l 785 357 l 785 28 q 618 -6 731 4 l 632 -143 l 283 -143 l 297 4 q 100 140 160 39 q 40 417 40 240 z "},"£":{"ha":932,"x_min":60,"x_max":892,"o":"m 849 413 l 678 413 q 669 357 678 379 l 892 357 l 892 0 l 89 0 q 102 35 94 11 q 122 166 110 60 q 135 413 135 272 l 60 413 l 60 511 l 135 511 q 266 853 147 732 q 600 974 385 974 q 773 959 700 974 q 869 929 846 944 l 892 914 l 892 539 q 785 568 865 568 q 685 511 706 568 l 849 511 l 849 413 z "},"¤":{"ha":1003,"x_min":40,"x_max":964,"o":"m 639 556 l 639 511 l 821 511 l 821 475 l 639 475 l 639 439 l 821 439 l 821 403 l 639 403 l 639 361 q 736 357 667 357 q 939 374 867 357 l 964 379 l 964 33 q 830 1 928 15 q 622 -14 732 -14 q 264 91 393 -14 q 114 403 135 196 l 40 403 l 40 439 l 110 439 l 110 475 l 40 475 l 40 511 l 110 511 q 246 861 117 749 q 624 974 375 974 q 816 961 731 974 q 933 936 901 949 l 964 924 l 964 536 q 639 556 882 556 z "},"¥":{"ha":1144,"x_min":40,"x_max":1104,"o":"m 1044 135 l 832 135 l 832 0 l 313 0 l 313 135 l 99 135 l 99 171 l 313 171 l 313 207 l 99 207 l 99 242 l 274 242 q 156 326 201 275 q 99 479 111 376 l 40 960 l 531 960 l 567 485 l 596 485 l 628 960 l 1104 960 l 1044 479 q 987 326 1032 376 q 869 242 942 275 l 1044 242 l 1044 207 l 832 207 l 832 171 l 1044 171 l 1044 135 z "},"¦":{"ha":546,"x_min":65,"x_max":481,"o":"m 81 517 l 65 522 l 65 1026 q 274 1050 111 1050 q 464 1033 421 1050 l 481 1026 l 481 522 q 283 499 433 499 q 81 517 133 499 m 81 -75 l 65 -68 l 65 438 q 274 461 111 461 q 464 444 421 461 l 481 438 l 481 -68 q 279 -92 433 -92 q 81 -75 125 -92 z "},"§":{"ha":897,"x_min":40,"x_max":858,"o":"m 753 318 q 842 142 842 274 q 415 -143 842 -143 q 224 -130 310 -143 q 104 -104 138 -117 l 71 -92 l 71 213 q 406 176 236 176 l 406 214 q 40 415 40 214 q 124 574 40 532 q 40 772 40 629 q 142 982 40 914 q 447 1050 243 1050 q 638 1038 553 1050 q 757 1011 724 1025 l 790 999 l 790 694 q 476 731 646 731 l 476 693 q 828 593 764 685 q 858 476 858 550 q 793 338 858 381 q 753 318 771 322 z "},"¨":{"ha":975,"x_min":158,"x_max":817,"o":"m 350 992 l 269 992 q 183 1019 208 992 q 158 1103 158 1047 q 183 1187 158 1158 q 269 1215 208 1215 l 350 1215 q 458 1103 458 1215 q 350 992 458 992 m 707 992 l 628 992 q 542 1019 567 992 q 517 1103 517 1047 q 542 1187 517 1158 q 628 1215 567 1215 l 707 1215 q 817 1103 817 1215 q 707 992 817 992 z "},"©":{"ha":965,"x_min":15,"x_max":950,"o":"m 15 485 q 15 610 15 485 q 127 853 15 736 q 479 971 239 971 q 835 854 719 971 q 950 486 950 738 q 836 111 950 235 q 481 -12 722 -12 q 128 110 240 -12 q 15 485 15 233 m 499 131 q 651 148 585 131 q 742 183 718 165 l 767 200 l 767 444 q 572 435 693 435 l 482 439 l 482 511 l 767 511 l 767 767 q 741 786 758 775 q 658 817 724 797 q 514 836 593 836 q 249 753 332 836 q 165 481 165 671 q 249 210 165 290 q 499 131 333 131 z "},"ª":{"ha":747,"x_min":19,"x_max":726,"o":"m 267 675 q 150 660 206 675 q 69 631 94 644 l 46 615 l 46 900 q 78 921 57 908 q 176 953 99 933 q 346 974 254 974 q 617 911 532 974 q 703 715 703 849 l 697 572 l 726 574 l 726 310 q 560 264 671 264 q 417 357 429 264 q 213 264 339 264 q 19 426 19 264 q 100 565 19 522 q 361 615 181 608 q 267 675 361 675 m 374 500 l 374 564 l 315 549 l 315 500 q 324 481 315 489 q 344 472 332 472 q 365 481 357 472 q 374 500 374 489 z "},"«":{"ha":1142,"x_min":32,"x_max":1103,"o":"m 32 324 l 32 618 l 549 864 l 549 500 l 332 471 l 549 425 l 549 78 l 32 324 m 586 324 l 586 618 l 1103 864 l 1103 500 l 886 471 l 1103 425 l 1103 78 l 586 324 z "},"¬":{"ha":824,"x_min":32,"x_max":793,"o":"m 490 336 l 32 336 l 32 638 l 793 638 l 793 -12 l 490 -12 l 490 336 z "},"®":{"ha":965,"x_min":15,"x_max":950,"o":"m 15 485 q 15 610 15 485 q 127 853 15 736 q 479 971 239 971 q 835 854 719 971 q 950 486 950 738 q 836 111 950 235 q 481 -12 722 -12 q 128 110 240 -12 q 15 485 15 233 m 814 563 q 738 747 814 694 q 496 800 661 800 l 204 800 l 204 171 l 476 171 l 476 354 l 507 354 q 528 171 518 278 l 814 171 q 758 389 794 310 l 747 415 q 814 563 814 465 m 476 433 l 476 540 l 511 540 q 526 525 526 540 l 526 433 l 476 433 z "},"¯":{"ha":542,"x_min":65,"x_max":500,"o":"m 65 1179 l 500 1179 l 500 999 l 65 999 l 65 1179 z "},"°":{"ha":392,"x_min":19,"x_max":371,"o":"m 371 807 l 371 772 q 195 608 371 608 q 19 772 19 608 l 19 807 q 195 971 19 971 q 371 807 371 971 m 211 814 l 179 814 q 153 790 153 814 q 179 765 153 765 l 211 765 q 236 790 236 765 q 211 814 236 814 z "},"±":{"ha":625,"x_min":32,"x_max":594,"o":"m 32 54 l 32 338 l 594 338 l 594 54 l 32 54 m 172 933 l 454 933 l 454 782 l 594 782 l 594 500 l 454 500 l 454 371 l 172 371 l 172 500 l 32 500 l 32 782 l 172 782 l 172 933 z "},"²":{"ha":653,"x_min":19,"x_max":633,"o":"m 633 264 l 19 264 l 19 511 q 87 538 47 522 q 143 560 126 553 q 181 578 160 567 q 214 619 214 594 q 183 643 214 643 q 53 618 126 643 l 29 610 l 29 915 q 162 956 75 939 q 329 974 249 974 q 633 767 633 974 q 590 635 633 686 q 443 550 546 585 l 633 550 l 633 264 z "},"³":{"ha":675,"x_min":19,"x_max":656,"o":"m 244 664 q 231 671 244 664 q 168 678 218 678 q 64 657 118 678 l 22 919 q 58 934 35 925 q 164 958 81 943 q 342 974 247 974 q 567 917 493 974 q 642 754 642 860 q 628 681 642 714 q 588 622 608 633 q 649 531 632 600 q 656 468 656 503 q 297 253 656 253 q 143 265 213 253 q 47 292 74 278 l 19 304 l 42 539 q 160 518 103 518 q 241 528 218 518 q 267 549 264 539 l 269 558 l 103 554 l 103 638 l 269 636 q 244 664 269 650 z "},"´":{"ha":542,"x_min":65,"x_max":500,"o":"m 500 999 l 65 999 l 65 1179 l 500 1218 l 500 999 z "},"µ":{"ha":946,"x_min":40,"x_max":906,"o":"m 463 19 q 489 -87 469 -25 l 69 -143 q 40 194 40 -4 l 40 821 l 433 821 l 433 364 q 445 335 433 347 q 474 324 457 324 q 501 335 490 324 q 513 364 513 347 l 513 821 l 906 821 l 906 0 l 556 0 l 542 101 q 516 54 536 75 q 479 26 496 33 l 463 19 z "},"¶":{"ha":961,"x_min":19,"x_max":942,"o":"m 874 -93 l 368 -93 l 368 221 q 122 313 224 221 q 19 572 19 404 q 131 869 19 778 q 485 960 243 960 l 942 960 l 942 522 l 874 522 l 874 -93 z "},"·":{"ha":610,"x_min":28,"x_max":582,"o":"m 303 226 q 228 226 303 226 q 90 281 153 226 q 28 460 28 335 q 91 639 28 586 q 303 692 154 692 q 517 638 453 692 q 582 460 582 585 q 518 281 582 336 q 303 226 454 226 z "},"¸":{"ha":517,"x_min":64,"x_max":444,"o":"m 240 -286 q 140 -275 185 -286 q 81 -253 96 -264 l 64 -240 l 114 -106 q 240 -139 153 -139 q 313 -124 279 -139 l 306 -103 q 239 -115 288 -115 q 121 -33 121 -115 q 207 47 121 38 q 211 38 208 43 q 233 23 214 32 q 283 14 253 14 q 407 -22 369 14 q 444 -128 444 -57 q 393 -242 444 -199 q 240 -286 342 -286 z "},"¹":{"ha":413,"x_min":19,"x_max":393,"o":"m 19 276 l 19 896 l 393 971 l 393 276 l 19 276 z "},"º":{"ha":724,"x_min":19,"x_max":703,"o":"m 374 971 q 621 888 539 971 q 703 617 703 804 q 620 347 703 431 q 360 264 538 264 l 351 264 q 103 348 186 264 q 19 617 19 432 q 102 886 19 803 q 360 971 185 969 l 374 971 m 326 650 l 326 558 q 337 529 326 540 q 365 518 347 518 q 394 529 382 518 q 406 558 406 540 l 406 650 q 394 677 406 665 q 365 689 382 689 q 338 678 349 689 q 326 650 326 667 z "},"»":{"ha":1142,"x_min":40,"x_max":1110,"o":"m 1110 618 l 1110 324 l 594 78 l 594 425 l 810 471 l 594 500 l 594 864 l 1110 618 m 556 618 l 556 324 l 40 78 l 40 425 l 256 471 l 40 500 l 40 864 l 556 618 z "},"¼":{"ha":1599,"x_min":19,"x_max":1579,"o":"m 946 1021 l 757 -46 l 410 -46 l 600 1021 l 946 1021 m 1151 92 l 910 92 l 910 319 l 1136 693 l 1500 693 l 1500 369 l 1579 369 l 1579 92 l 1500 92 l 1500 0 l 1151 0 l 1151 92 m 19 276 l 19 896 l 393 971 l 393 276 l 19 276 m 1229 268 l 1229 357 l 1197 357 l 1168 268 l 1229 268 z "},"½":{"ha":1575,"x_min":19,"x_max":1556,"o":"m 946 1021 l 757 -46 l 410 -46 l 600 1021 l 946 1021 m 19 276 l 19 896 l 393 971 l 393 276 l 19 276 m 1556 0 l 942 0 l 942 246 q 992 265 964 254 q 1035 283 1019 276 q 1070 297 1051 289 q 1099 311 1089 306 q 1119 324 1110 317 q 1136 354 1136 336 q 1106 379 1136 379 q 975 354 1049 379 l 951 346 l 951 651 q 1084 692 997 675 q 1251 710 1171 710 q 1556 503 1556 710 q 1512 372 1556 422 q 1364 286 1468 321 l 1556 286 l 1556 0 z "},"¾":{"ha":1789,"x_min":19,"x_max":1769,"o":"m 244 674 q 231 681 244 674 q 165 688 218 688 q 64 667 111 688 l 22 929 q 58 944 35 935 q 164 968 81 953 q 342 983 247 983 q 567 926 493 983 q 642 765 642 869 q 628 692 642 725 q 588 632 610 643 q 649 542 632 610 q 656 479 656 513 q 297 263 656 263 q 143 276 213 263 q 47 301 74 289 l 19 314 l 42 549 q 153 528 103 528 q 222 532 203 528 q 250 542 240 536 q 269 568 267 553 l 103 564 l 103 647 l 269 646 q 244 674 269 660 m 1164 1021 l 975 -46 l 628 -46 l 818 1021 l 1164 1021 m 1343 92 l 1100 92 l 1100 319 l 1326 693 l 1690 693 l 1690 369 l 1769 369 l 1769 92 l 1690 92 l 1690 0 l 1343 0 l 1343 92 m 1419 268 l 1419 357 l 1389 357 l 1358 268 l 1419 268 z "},"¿":{"ha":660,"x_min":10,"x_max":636,"o":"m 449 286 q 497 249 449 249 q 578 272 546 249 l 636 -68 q 443 -139 588 -117 q 318 -149 385 -149 q 80 -87 150 -149 q 10 85 10 -26 q 31 181 10 135 q 77 256 51 226 q 124 338 103 286 q 144 449 144 389 l 144 481 l 531 481 l 531 454 q 469 322 531 383 q 449 286 449 301 m 429 526 l 249 526 q 132 567 172 526 q 92 681 92 608 q 132 794 92 753 q 249 835 172 835 l 429 835 q 546 794 506 835 q 586 681 586 753 q 546 567 586 608 q 429 526 506 526 z "},"À":{"ha":1039,"x_min":19,"x_max":1019,"o":"m 558 0 l 550 149 l 465 149 l 457 0 l 19 0 q 76 467 33 228 q 156 833 119 707 l 190 960 l 849 960 q 888 821 864 910 q 957 480 911 732 q 1019 0 1003 228 l 558 0 m 486 493 l 475 276 l 540 276 l 531 493 l 486 493 m 732 999 l 297 999 l 297 1218 l 732 1179 l 732 999 z "},"Á":{"ha":1039,"x_min":19,"x_max":1019,"o":"m 558 0 l 550 149 l 465 149 l 457 0 l 19 0 q 76 467 33 228 q 156 833 119 707 l 190 960 l 849 960 q 888 821 864 910 q 957 480 911 732 q 1019 0 1003 228 l 558 0 m 486 493 l 475 276 l 540 276 l 531 493 l 486 493 m 728 1004 l 293 1004 l 293 1185 l 728 1224 l 728 1004 z "},"Â":{"ha":1039,"x_min":19,"x_max":1019,"o":"m 558 0 l 550 149 l 465 149 l 457 0 l 19 0 q 76 467 33 228 q 156 833 119 707 l 190 960 l 849 960 q 888 821 864 910 q 957 480 911 732 q 1019 0 1003 228 l 558 0 m 486 493 l 475 276 l 540 276 l 531 493 l 486 493 m 697 983 l 508 1081 l 315 983 l 244 1165 l 508 1243 l 771 1165 l 697 983 z "},"Ã":{"ha":1039,"x_min":19,"x_max":1019,"o":"m 558 0 l 550 149 l 465 149 l 457 0 l 19 0 q 76 467 33 228 q 156 833 119 707 l 190 960 l 849 960 q 888 821 864 910 q 957 480 911 732 q 1019 0 1003 228 l 558 0 m 486 493 l 475 276 l 540 276 l 531 493 l 486 493 m 303 1275 q 397 1286 343 1286 q 501 1267 450 1286 q 572 1228 551 1247 l 592 1210 l 768 1297 l 878 1115 q 844 1083 869 1103 q 792 1050 818 1063 q 629 1014 721 1014 q 532 1032 579 1014 q 461 1069 485 1050 l 439 1088 l 268 997 l 157 1182 q 303 1275 200 1247 z "},"Ä":{"ha":1039,"x_min":19,"x_max":1019,"o":"m 558 0 l 550 149 l 465 149 l 457 0 l 19 0 q 76 467 33 228 q 156 833 119 707 l 190 960 l 849 960 q 888 821 864 910 q 957 480 911 732 q 1019 0 1003 228 l 558 0 m 486 493 l 475 276 l 540 276 l 531 493 l 486 493 m 382 992 l 301 992 q 215 1019 240 992 q 190 1103 190 1047 q 215 1187 190 1158 q 301 1215 240 1215 l 382 1215 q 490 1103 490 1215 q 382 992 490 992 m 739 992 l 660 992 q 574 1019 599 992 q 549 1103 549 1047 q 574 1187 549 1158 q 660 1215 599 1215 l 739 1215 q 849 1103 849 1215 q 739 992 849 992 z "},"Å":{"ha":1039,"x_min":19,"x_max":1019,"o":"m 558 0 l 550 149 l 465 149 l 457 0 l 19 0 q 76 467 33 228 q 156 833 119 707 l 190 960 l 849 960 q 888 821 864 910 q 957 480 911 732 q 1019 0 1003 228 l 558 0 m 486 493 l 475 276 l 540 276 l 531 493 l 486 493 m 432 1244 l 585 1244 q 750 1110 750 1244 q 585 972 750 972 l 432 972 q 267 1110 267 972 q 432 1244 267 1244 m 478 1069 l 544 1069 q 576 1101 576 1069 q 544 1133 576 1133 l 478 1133 q 443 1104 443 1133 q 478 1069 443 1069 z "},"Æ":{"ha":1335,"x_min":19,"x_max":1294,"o":"m 1283 960 l 1283 556 l 983 556 l 983 500 l 1283 500 l 1283 413 l 983 413 l 983 357 l 1294 357 l 1294 0 l 558 0 l 550 149 l 465 149 l 457 0 l 19 0 q 76 467 33 228 q 156 833 119 707 l 190 960 l 1283 960 m 486 493 l 475 276 l 540 276 l 531 493 l 486 493 z "},"Ç":{"ha":974,"x_min":40,"x_max":933,"o":"m 496 -286 q 396 -275 440 -286 q 336 -253 351 -264 l 319 -240 l 369 -106 q 496 -139 410 -139 q 568 -124 535 -139 l 563 -103 q 494 -115 544 -115 q 378 -33 378 -115 q 383 1 378 -11 q 40 486 40 82 q 169 856 40 738 q 554 974 299 974 q 756 961 661 974 q 892 936 851 949 l 933 924 l 933 507 q 569 526 813 526 l 569 451 q 667 447 597 447 q 900 456 797 447 l 933 458 l 933 33 q 650 -10 832 0 q 701 -122 701 -44 q 649 -242 701 -199 q 496 -286 597 -286 z "},"È":{"ha":869,"x_min":40,"x_max":831,"o":"m 40 960 l 818 960 l 818 556 l 518 556 l 518 500 l 818 500 l 818 413 l 518 413 l 518 357 l 831 357 l 831 0 l 40 0 l 40 960 m 647 999 l 213 999 l 213 1218 l 647 1179 l 647 999 z "},"É":{"ha":869,"x_min":40,"x_max":831,"o":"m 40 960 l 818 960 l 818 556 l 518 556 l 518 500 l 818 500 l 818 413 l 518 413 l 518 357 l 831 357 l 831 0 l 40 0 l 40 960 m 647 1000 l 213 1000 l 213 1181 l 647 1219 l 647 1000 z "},"Ê":{"ha":869,"x_min":40,"x_max":831,"o":"m 40 960 l 818 960 l 818 556 l 518 556 l 518 500 l 818 500 l 818 413 l 518 413 l 518 357 l 831 357 l 831 0 l 40 0 l 40 960 m 619 986 l 431 1083 l 238 986 l 167 1168 l 431 1246 l 693 1168 l 619 986 z "},"Ë":{"ha":869,"x_min":40,"x_max":831,"o":"m 40 960 l 818 960 l 818 556 l 518 556 l 518 500 l 818 500 l 818 413 l 518 413 l 518 357 l 831 357 l 831 0 l 40 0 l 40 960 m 296 992 l 215 992 q 129 1019 154 992 q 104 1103 104 1047 q 129 1187 104 1158 q 215 1215 154 1215 l 296 1215 q 404 1103 404 1215 q 296 992 404 992 m 653 992 l 574 992 q 488 1019 513 992 q 463 1103 463 1047 q 488 1187 463 1158 q 574 1215 513 1215 l 653 1215 q 763 1103 763 1215 q 653 992 763 992 z "},"Ì":{"ha":558,"x_min":40,"x_max":518,"o":"m 40 0 l 40 960 l 518 960 l 518 0 l 40 0 m 499 999 l 64 999 l 64 1218 l 499 1179 l 499 999 z "},"Í":{"ha":558,"x_min":40,"x_max":518,"o":"m 40 0 l 40 960 l 518 960 l 518 0 l 40 0 m 496 999 l 61 999 l 61 1179 l 496 1218 l 496 999 z "},"Î":{"ha":558,"x_min":17,"x_max":543,"o":"m 40 0 l 40 960 l 518 960 l 518 0 l 40 0 m 469 989 l 281 1086 l 88 989 l 17 1171 l 281 1249 l 543 1171 l 469 989 z "},"Ï":{"ha":558,"x_min":-49,"x_max":610,"o":"m 40 0 l 40 960 l 518 960 l 518 0 l 40 0 m 143 992 l 63 992 q -24 1019 1 992 q -49 1103 -49 1047 q -24 1187 -49 1158 q 63 1215 1 1215 l 143 1215 q 251 1103 251 1215 q 143 992 251 992 m 500 992 l 421 992 q 335 1019 360 992 q 310 1103 310 1047 q 335 1187 310 1158 q 421 1215 360 1215 l 500 1215 q 610 1103 610 1215 q 500 992 610 992 z "},"Ð":{"ha":1058,"x_min":0,"x_max":1019,"o":"m 40 960 l 542 960 q 897 849 774 960 q 1019 486 1019 738 q 522 0 1019 0 l 40 0 l 40 357 l 0 357 l 0 586 l 40 586 l 40 960 m 507 556 l 507 315 l 546 315 q 574 326 563 315 q 586 356 586 338 l 586 517 q 574 544 586 533 q 546 556 563 556 l 507 556 z "},"Ñ":{"ha":1021,"x_min":40,"x_max":981,"o":"m 40 960 l 465 960 l 553 674 l 553 960 l 981 960 l 981 0 l 553 0 l 479 281 l 479 0 l 40 0 l 40 960 m 286 1263 q 381 1274 328 1274 q 485 1255 435 1274 q 556 1217 536 1236 l 576 1197 l 753 1285 l 863 1103 q 828 1070 854 1090 q 776 1036 803 1050 q 614 1001 706 1001 q 517 1020 564 1001 q 447 1057 469 1039 l 424 1075 l 253 985 l 142 1169 q 286 1263 185 1235 z "},"Ò":{"ha":1113,"x_min":19,"x_max":1092,"o":"m 499 974 l 614 974 q 978 856 864 974 q 1092 485 1092 738 q 977 109 1092 232 q 614 -14 863 -14 l 499 -14 q 135 109 250 -14 q 19 485 19 232 q 134 856 19 738 q 499 974 249 974 m 517 517 l 517 356 q 527 326 517 338 q 555 315 538 315 q 584 326 572 315 q 596 356 596 338 l 596 517 q 584 544 596 533 q 555 556 572 556 q 527 544 538 556 q 517 517 517 533 m 772 999 l 338 999 l 338 1218 l 772 1179 l 772 999 z "},"Ó":{"ha":1113,"x_min":19,"x_max":1092,"o":"m 499 974 l 614 974 q 978 856 864 974 q 1092 485 1092 738 q 977 109 1092 232 q 614 -14 863 -14 l 499 -14 q 135 109 250 -14 q 19 485 19 232 q 134 856 19 738 q 499 974 249 974 m 517 517 l 517 356 q 527 326 517 338 q 555 315 538 315 q 584 326 572 315 q 596 356 596 338 l 596 517 q 584 544 596 533 q 555 556 572 556 q 527 544 538 556 q 517 517 517 533 m 774 999 l 339 999 l 339 1179 l 774 1218 l 774 999 z "},"Ô":{"ha":1113,"x_min":19,"x_max":1092,"o":"m 499 974 l 614 974 q 978 856 864 974 q 1092 485 1092 738 q 977 109 1092 232 q 614 -14 863 -14 l 499 -14 q 135 109 250 -14 q 19 485 19 232 q 134 856 19 738 q 499 974 249 974 m 517 517 l 517 356 q 527 326 517 338 q 555 315 538 315 q 584 326 572 315 q 596 356 596 338 l 596 517 q 584 544 596 533 q 555 556 572 556 q 527 544 538 556 q 517 517 517 533 m 747 986 l 558 1083 l 365 986 l 294 1168 l 558 1246 l 821 1168 l 747 986 z "},"Õ":{"ha":1113,"x_min":19,"x_max":1092,"o":"m 499 974 l 614 974 q 978 856 864 974 q 1092 485 1092 738 q 977 109 1092 232 q 614 -14 863 -14 l 499 -14 q 135 109 250 -14 q 19 485 19 232 q 134 856 19 738 q 499 974 249 974 m 517 517 l 517 356 q 527 326 517 338 q 555 315 538 315 q 584 326 572 315 q 596 356 596 338 l 596 517 q 584 544 596 533 q 555 556 572 556 q 527 544 538 556 q 517 517 517 533 m 339 1267 q 434 1278 381 1278 q 538 1258 488 1278 q 608 1219 589 1239 l 629 1201 l 806 1289 l 915 1107 q 881 1074 907 1094 q 829 1042 856 1054 q 667 1006 758 1006 q 569 1024 617 1006 q 500 1061 522 1042 l 476 1079 l 306 989 l 194 1174 q 339 1267 238 1239 z "},"Ö":{"ha":1113,"x_min":19,"x_max":1092,"o":"m 499 974 l 614 974 q 978 856 864 974 q 1092 485 1092 738 q 977 109 1092 232 q 614 -14 863 -14 l 499 -14 q 135 109 250 -14 q 19 485 19 232 q 134 856 19 738 q 499 974 249 974 m 517 517 l 517 356 q 527 326 517 338 q 555 315 538 315 q 584 326 572 315 q 596 356 596 338 l 596 517 q 584 544 596 533 q 555 556 572 556 q 527 544 538 556 q 517 517 517 533 m 419 1000 l 339 1000 q 253 1028 278 1000 q 228 1111 228 1056 q 253 1195 228 1167 q 339 1224 278 1224 l 419 1224 q 528 1112 528 1224 q 419 1000 528 1000 m 776 1000 l 697 1000 q 611 1028 636 1000 q 586 1111 586 1056 q 611 1195 586 1167 q 697 1224 636 1224 l 776 1224 q 886 1112 886 1224 q 776 1000 886 1000 z "},"×":{"ha":758,"x_min":19,"x_max":739,"o":"m 232 779 l 375 633 l 526 785 l 739 572 l 590 421 l 725 286 l 511 74 l 375 207 l 249 79 l 33 294 l 163 421 l 19 564 l 232 779 z "},"Ø":{"ha":1113,"x_min":19,"x_max":1092,"o":"m 517 517 l 517 356 q 527 326 517 338 q 555 315 538 315 q 584 326 572 315 q 596 356 596 338 l 596 517 q 584 544 596 533 q 555 556 572 556 q 527 544 538 556 q 517 517 517 533 m 19 486 q 128 848 19 729 q 471 974 236 967 l 490 1085 q 593 1096 518 1096 q 729 1080 668 1096 q 808 1049 790 1064 l 828 1033 l 813 947 q 1024 793 957 906 q 1092 486 1092 681 q 983 116 1092 239 q 642 -14 875 -7 l 624 -117 q 522 -129 596 -129 q 385 -113 447 -129 q 306 -81 324 -97 l 286 -65 l 300 10 q 88 171 156 53 q 19 486 19 289 z "},"Ù":{"ha":1072,"x_min":40,"x_max":1033,"o":"m 576 960 l 1033 960 l 1033 426 q 919 94 1033 201 q 554 -14 804 -14 l 518 -14 q 155 94 269 -14 q 40 426 40 203 l 40 960 l 496 960 l 496 375 q 507 347 496 357 q 535 336 518 336 q 565 347 553 336 q 576 375 576 358 l 576 960 m 754 999 l 319 999 l 319 1218 l 754 1179 l 754 999 z "},"Ú":{"ha":1072,"x_min":40,"x_max":1033,"o":"m 576 960 l 1033 960 l 1033 426 q 919 94 1033 201 q 554 -14 804 -14 l 518 -14 q 155 94 269 -14 q 40 426 40 203 l 40 960 l 496 960 l 496 375 q 507 347 496 357 q 535 336 518 336 q 565 347 553 336 q 576 375 576 358 l 576 960 m 754 999 l 319 999 l 319 1179 l 754 1218 l 754 999 z "},"Û":{"ha":1072,"x_min":40,"x_max":1033,"o":"m 576 960 l 1033 960 l 1033 426 q 919 94 1033 201 q 554 -14 804 -14 l 518 -14 q 155 94 269 -14 q 40 426 40 203 l 40 960 l 496 960 l 496 375 q 507 347 496 357 q 535 336 518 336 q 565 347 553 336 q 576 375 576 358 l 576 960 m 729 988 l 540 1085 l 347 988 l 276 1169 l 540 1247 l 803 1169 l 729 988 z "},"Ü":{"ha":1072,"x_min":40,"x_max":1033,"o":"m 576 960 l 1033 960 l 1033 426 q 919 94 1033 201 q 554 -14 804 -14 l 518 -14 q 155 94 269 -14 q 40 426 40 203 l 40 960 l 496 960 l 496 375 q 507 347 496 357 q 535 336 518 336 q 565 347 553 336 q 576 375 576 358 l 576 960 m 400 1000 l 319 1000 q 233 1028 258 1000 q 208 1111 208 1056 q 233 1195 208 1167 q 319 1224 258 1224 l 400 1224 q 508 1112 508 1224 q 400 1000 508 1000 m 757 1000 l 678 1000 q 592 1028 617 1000 q 567 1111 567 1056 q 592 1195 567 1167 q 678 1224 617 1224 l 757 1224 q 867 1112 867 1224 q 757 1000 867 1000 z "},"Ý":{"ha":1104,"x_min":19,"x_max":1085,"o":"m 813 0 l 292 0 l 292 226 q 238 250 253 243 q 188 279 222 257 q 138 325 154 301 q 79 479 92 388 l 19 960 l 511 960 l 546 485 l 576 485 l 606 960 l 1085 960 l 1025 479 q 967 325 1013 388 q 916 279 950 301 q 867 250 882 257 q 813 226 851 243 l 813 0 m 778 999 l 343 999 l 343 1179 l 778 1218 l 778 999 z "},"Þ":{"ha":1047,"x_min":40,"x_max":1026,"o":"m 40 0 l 40 960 l 518 960 l 518 832 l 544 832 q 910 751 794 832 q 1026 471 1026 671 q 938 232 1026 311 q 518 139 833 139 l 518 0 l 40 0 m 518 342 l 558 342 q 586 353 575 342 q 597 382 597 364 l 597 444 q 586 474 597 463 q 558 485 575 485 l 518 485 l 518 342 z "},"ß":{"ha":901,"x_min":40,"x_max":890,"o":"m 40 -106 l 40 657 q 433 946 40 946 q 744 868 643 946 q 846 657 846 790 q 835 558 846 603 q 814 494 825 513 l 803 475 q 831 455 813 472 q 860 418 849 438 q 890 295 890 364 q 881 186 890 226 q 844 107 872 146 q 769 43 817 68 q 454 -12 664 -12 l 454 -106 l 40 -106 m 514 461 l 514 532 q 503 561 514 550 q 475 572 492 572 l 435 572 l 435 461 l 514 461 m 493 393 l 435 393 l 435 314 l 493 314 q 520 326 508 314 q 532 354 532 338 q 521 382 532 371 q 493 393 510 393 z "},"à":{"ha":914,"x_min":40,"x_max":883,"o":"m 856 525 l 849 354 l 883 356 l 883 40 q 797 3 858 19 q 682 -14 736 -14 q 596 -4 628 -14 q 549 17 564 6 q 525 44 533 29 q 513 82 513 67 q 269 -14 436 -14 q 40 181 40 -14 q 129 347 40 297 q 440 406 218 396 q 333 454 440 454 q 195 436 261 454 q 100 400 129 418 l 69 382 l 69 747 q 107 772 82 757 q 225 810 132 786 q 429 835 318 835 q 753 760 651 835 q 856 525 856 685 m 463 304 l 463 360 l 383 338 l 383 304 q 395 275 383 286 q 424 264 407 264 q 452 275 442 264 q 463 304 463 286 m 683 861 l 249 861 l 249 1081 l 683 1042 l 683 861 z "},"á":{"ha":914,"x_min":40,"x_max":883,"o":"m 856 525 l 849 354 l 883 356 l 883 40 q 797 3 858 19 q 682 -14 736 -14 q 596 -4 628 -14 q 549 17 564 6 q 525 44 533 29 q 513 82 513 67 q 269 -14 436 -14 q 40 181 40 -14 q 129 347 40 297 q 440 406 218 396 q 333 454 440 454 q 195 436 261 454 q 100 400 129 418 l 69 382 l 69 747 q 107 772 82 757 q 225 810 132 786 q 429 835 318 835 q 753 760 651 835 q 856 525 856 685 m 463 304 l 463 360 l 383 338 l 383 304 q 395 275 383 286 q 424 264 407 264 q 452 275 442 264 q 463 304 463 286 m 693 861 l 258 861 l 258 1042 l 693 1081 l 693 861 z "},"â":{"ha":914,"x_min":40,"x_max":883,"o":"m 856 525 l 849 354 l 883 356 l 883 40 q 797 3 858 19 q 682 -14 736 -14 q 596 -4 628 -14 q 549 17 564 6 q 525 44 533 29 q 513 82 513 67 q 269 -14 436 -14 q 40 181 40 -14 q 129 347 40 297 q 440 406 218 396 q 333 454 440 454 q 195 436 261 454 q 100 400 129 418 l 69 382 l 69 747 q 107 772 82 757 q 225 810 132 786 q 429 835 318 835 q 753 760 651 835 q 856 525 856 685 m 463 304 l 463 360 l 383 338 l 383 304 q 395 275 383 286 q 424 264 407 264 q 452 275 442 264 q 463 304 463 286 m 654 846 l 465 943 l 272 846 l 201 1028 l 465 1106 l 728 1028 l 654 846 z "},"ã":{"ha":914,"x_min":40,"x_max":883,"o":"m 856 525 l 849 354 l 883 356 l 883 40 q 797 3 858 19 q 682 -14 736 -14 q 596 -4 628 -14 q 549 17 564 6 q 525 44 533 29 q 513 82 513 67 q 269 -14 436 -14 q 40 181 40 -14 q 129 347 40 297 q 440 406 218 396 q 333 454 440 454 q 195 436 261 454 q 100 400 129 418 l 69 382 l 69 747 q 107 772 82 757 q 225 810 132 786 q 429 835 318 835 q 753 760 651 835 q 856 525 856 685 m 463 304 l 463 360 l 383 338 l 383 304 q 395 275 383 286 q 424 264 407 264 q 452 275 442 264 q 463 304 463 286 m 253 1132 q 347 1143 293 1143 q 451 1124 400 1143 q 522 1086 501 1106 l 542 1067 l 718 1154 l 828 972 q 794 940 819 960 q 742 906 768 919 q 579 871 671 871 q 482 890 529 871 q 411 926 435 908 l 389 944 l 218 854 l 107 1039 q 253 1132 150 1104 z "},"ä":{"ha":914,"x_min":40,"x_max":883,"o":"m 856 525 l 849 354 l 883 356 l 883 40 q 797 3 858 19 q 682 -14 736 -14 q 596 -4 628 -14 q 549 17 564 6 q 525 44 533 29 q 513 82 513 67 q 269 -14 436 -14 q 40 181 40 -14 q 129 347 40 297 q 440 406 218 396 q 333 454 440 454 q 195 436 261 454 q 100 400 129 418 l 69 382 l 69 747 q 107 772 82 757 q 225 810 132 786 q 429 835 318 835 q 753 760 651 835 q 856 525 856 685 m 463 304 l 463 360 l 383 338 l 383 304 q 395 275 383 286 q 424 264 407 264 q 452 275 442 264 q 463 304 463 286 m 346 854 l 265 854 q 179 882 204 854 q 154 965 154 910 q 179 1049 154 1021 q 265 1078 204 1078 l 346 1078 q 454 966 454 1078 q 346 854 454 854 m 703 854 l 624 854 q 538 882 563 854 q 513 965 513 910 q 538 1049 513 1021 q 624 1078 563 1078 l 703 1078 q 813 966 813 1078 q 703 854 813 854 z "},"å":{"ha":914,"x_min":40,"x_max":883,"o":"m 856 525 l 849 354 l 883 356 l 883 40 q 797 3 858 19 q 682 -14 736 -14 q 596 -4 628 -14 q 549 17 564 6 q 525 44 533 29 q 513 82 513 67 q 269 -14 436 -14 q 40 181 40 -14 q 129 347 40 297 q 440 406 218 396 q 333 454 440 454 q 195 436 261 454 q 100 400 129 418 l 69 382 l 69 747 q 107 772 82 757 q 225 810 132 786 q 429 835 318 835 q 753 760 651 835 q 856 525 856 685 m 463 304 l 463 360 l 383 338 l 383 304 q 395 275 383 286 q 424 264 407 264 q 452 275 442 264 q 463 304 463 286 m 388 1143 l 540 1143 q 706 1008 706 1143 q 540 871 706 871 l 388 871 q 222 1008 222 871 q 388 1143 222 1143 m 433 968 l 500 968 q 532 1000 532 968 q 500 1032 532 1032 l 433 1032 q 399 1003 399 1032 q 433 968 399 968 z "},"æ":{"ha":1288,"x_min":40,"x_max":1247,"o":"m 858 835 q 1161 746 1075 835 q 1247 454 1247 657 l 1242 357 l 858 357 l 858 300 q 958 292 892 292 q 1189 311 1094 292 l 1218 318 l 1218 47 q 1192 30 1210 40 q 1092 3 1174 19 q 897 -14 1010 -14 q 588 74 703 -14 q 286 -14 482 -14 q 104 35 168 -14 q 40 181 40 83 q 129 347 40 297 q 440 406 218 396 q 333 454 440 454 q 195 436 261 454 q 100 400 129 418 l 69 382 l 69 747 q 107 772 82 757 q 225 810 132 786 q 438 835 318 835 q 639 796 557 835 q 858 835 729 835 m 461 304 l 461 360 l 382 338 l 382 304 q 393 275 382 286 q 422 264 404 264 q 450 275 439 264 q 461 304 461 286 m 856 457 l 856 419 l 936 419 l 936 457 q 924 485 936 474 q 895 496 913 496 q 867 485 878 496 q 856 457 856 475 z "},"ç":{"ha":824,"x_min":40,"x_max":785,"o":"m 443 -286 q 342 -275 386 -286 q 283 -253 299 -264 l 267 -240 l 315 -106 q 443 -139 356 -139 q 514 -124 481 -139 l 508 -103 q 440 -115 490 -115 q 324 -33 324 -115 q 328 -1 324 -12 q 107 128 174 26 q 40 417 40 231 q 151 734 40 633 q 485 835 263 835 q 660 821 585 835 q 760 793 735 807 l 785 779 l 785 413 l 500 413 l 500 351 q 585 347 525 347 q 764 356 685 347 l 785 357 l 785 28 q 594 -10 725 0 q 647 -120 647 -42 q 595 -242 647 -199 q 443 -286 543 -286 z "},"è":{"ha":883,"x_min":40,"x_max":844,"o":"m 40 409 q 40 515 40 409 q 137 728 40 621 q 453 835 233 835 q 758 746 672 835 q 844 454 844 657 l 838 347 l 454 347 l 454 300 q 556 292 489 292 q 785 304 697 292 l 814 308 l 814 47 q 778 30 803 40 q 663 3 754 19 q 458 -14 571 -14 q 138 92 236 -14 q 40 409 40 197 m 433 471 l 433 417 l 513 417 l 513 471 q 501 500 513 489 q 472 511 489 511 q 444 500 454 511 q 433 471 433 489 m 663 861 l 228 861 l 228 1081 l 663 1042 l 663 861 z "},"é":{"ha":883,"x_min":40,"x_max":844,"o":"m 40 409 q 40 515 40 409 q 137 728 40 621 q 453 835 233 835 q 758 746 672 835 q 844 454 844 657 l 838 347 l 454 347 l 454 300 q 556 292 489 292 q 785 304 697 292 l 814 308 l 814 47 q 778 30 803 40 q 663 3 754 19 q 458 -14 571 -14 q 138 92 236 -14 q 40 409 40 197 m 433 471 l 433 417 l 513 417 l 513 471 q 501 500 513 489 q 472 511 489 511 q 444 500 454 511 q 433 471 433 489 m 676 861 l 242 861 l 242 1042 l 676 1081 l 676 861 z "},"ê":{"ha":883,"x_min":40,"x_max":844,"o":"m 40 409 q 40 515 40 409 q 137 728 40 621 q 453 835 233 835 q 758 746 672 835 q 844 454 844 657 l 838 347 l 454 347 l 454 300 q 556 292 489 292 q 785 304 697 292 l 814 308 l 814 47 q 778 30 803 40 q 663 3 754 19 q 458 -14 571 -14 q 138 92 236 -14 q 40 409 40 197 m 433 471 l 433 417 l 513 417 l 513 471 q 501 500 513 489 q 472 511 489 511 q 444 500 454 511 q 433 471 433 489 m 643 846 l 454 943 l 261 846 l 190 1028 l 454 1106 l 717 1028 l 643 846 z "},"ë":{"ha":883,"x_min":40,"x_max":844,"o":"m 40 409 q 40 515 40 409 q 137 728 40 621 q 453 835 233 835 q 758 746 672 835 q 844 454 844 657 l 838 347 l 454 347 l 454 300 q 556 292 489 292 q 785 304 697 292 l 814 308 l 814 47 q 778 30 803 40 q 663 3 754 19 q 458 -14 571 -14 q 138 92 236 -14 q 40 409 40 197 m 433 471 l 433 417 l 513 417 l 513 471 q 501 500 513 489 q 472 511 489 511 q 444 500 454 511 q 433 471 433 489 m 331 854 l 250 854 q 164 882 189 854 q 139 965 139 910 q 164 1049 139 1021 q 250 1078 189 1078 l 331 1078 q 439 966 439 1078 q 331 854 439 854 m 688 854 l 608 854 q 522 882 547 854 q 497 965 497 910 q 522 1049 497 1021 q 608 1078 547 1078 l 688 1078 q 797 966 797 1078 q 688 854 797 854 z "},"ì":{"ha":494,"x_min":19,"x_max":454,"o":"m 40 0 l 40 821 l 454 821 l 454 0 l 40 0 m 454 861 l 19 861 l 19 1081 l 454 1042 l 454 861 z "},"í":{"ha":494,"x_min":39,"x_max":474,"o":"m 40 0 l 40 821 l 454 821 l 454 0 l 40 0 m 474 861 l 39 861 l 39 1042 l 474 1081 l 474 861 z "},"î":{"ha":494,"x_min":-14,"x_max":513,"o":"m 40 0 l 40 821 l 454 821 l 454 0 l 40 0 m 439 849 l 250 946 l 57 849 l -14 1031 l 250 1108 l 513 1031 l 439 849 z "},"ï":{"ha":454,"x_min":-104,"x_max":554,"o":"m 21 0 l 21 821 l 435 821 l 435 0 l 21 0 m 88 863 l 7 863 q -79 890 -54 863 q -104 974 -104 918 q -79 1058 -104 1029 q 7 1086 -54 1086 l 88 1086 q 196 974 196 1086 q 88 863 196 863 m 444 863 l 365 863 q 279 890 304 863 q 254 974 254 918 q 279 1058 254 1029 q 365 1086 304 1086 l 444 1086 q 554 974 554 1086 q 444 863 554 863 z "},"ð":{"ha":929,"x_min":24,"x_max":901,"o":"m 461 -12 q 127 83 231 -12 q 24 364 24 178 q 105 569 24 494 q 346 643 186 643 l 482 643 l 482 689 l 97 689 l 97 1081 l 375 1081 q 776 946 651 1081 q 901 517 901 811 q 461 -12 901 -12 m 425 415 l 425 357 q 437 329 425 340 q 465 318 449 318 q 504 357 504 318 l 504 415 q 465 454 504 454 q 437 443 449 454 q 425 415 425 432 z "},"ñ":{"ha":946,"x_min":40,"x_max":906,"o":"m 433 440 l 433 0 l 40 0 l 40 821 l 389 821 l 403 719 q 428 757 408 735 q 469 794 447 779 q 632 835 531 835 q 837 760 768 835 q 906 542 906 685 l 906 0 l 513 0 l 513 440 q 501 469 513 457 q 472 481 489 481 q 444 469 456 481 q 433 440 433 457 m 256 1124 q 351 1135 297 1135 q 455 1116 404 1135 q 525 1078 506 1097 l 546 1058 l 722 1146 l 832 964 q 798 931 824 951 q 746 897 772 911 q 583 863 675 863 q 486 881 533 863 q 417 918 439 900 l 393 936 l 222 846 l 111 1031 q 256 1124 154 1096 z "},"ò":{"ha":946,"x_min":40,"x_max":906,"o":"m 500 -12 l 444 -12 q 141 88 242 -12 q 40 410 40 188 q 141 733 40 632 q 444 835 242 835 l 500 835 q 804 733 703 835 q 906 410 906 632 q 805 88 906 188 q 500 -12 704 -12 m 433 421 l 433 304 q 444 275 433 286 q 472 264 454 264 q 501 275 489 264 q 513 304 513 286 l 513 421 q 501 449 513 438 q 472 461 489 461 q 444 449 456 461 q 433 421 433 438 m 690 861 l 256 861 l 256 1081 l 690 1042 l 690 861 z "},"ó":{"ha":946,"x_min":40,"x_max":906,"o":"m 500 -12 l 444 -12 q 141 88 242 -12 q 40 410 40 188 q 141 733 40 632 q 444 835 242 835 l 500 835 q 804 733 703 835 q 906 410 906 632 q 805 88 906 188 q 500 -12 704 -12 m 433 421 l 433 304 q 444 275 433 286 q 472 264 454 264 q 501 275 489 264 q 513 304 513 286 l 513 421 q 501 449 513 438 q 472 461 489 461 q 444 449 456 461 q 433 421 433 438 m 690 861 l 256 861 l 256 1042 l 690 1081 l 690 861 z "},"ô":{"ha":946,"x_min":40,"x_max":906,"o":"m 500 -12 l 444 -12 q 141 88 242 -12 q 40 410 40 188 q 141 733 40 632 q 444 835 242 835 l 500 835 q 804 733 703 835 q 906 410 906 632 q 805 88 906 188 q 500 -12 704 -12 m 433 421 l 433 304 q 444 275 433 286 q 472 264 454 264 q 501 275 489 264 q 513 304 513 286 l 513 421 q 501 449 513 438 q 472 461 489 461 q 444 449 456 461 q 433 421 433 438 m 664 846 l 475 943 l 282 846 l 211 1028 l 475 1106 l 738 1028 l 664 846 z "},"õ":{"ha":946,"x_min":40,"x_max":906,"o":"m 500 -12 l 444 -12 q 141 88 242 -12 q 40 410 40 188 q 141 733 40 632 q 444 835 242 835 l 500 835 q 804 733 703 835 q 906 410 906 632 q 805 88 906 188 q 500 -12 704 -12 m 433 421 l 433 304 q 444 275 433 286 q 472 264 454 264 q 501 275 489 264 q 513 304 513 286 l 513 421 q 501 449 513 438 q 472 461 489 461 q 444 449 456 461 q 433 421 433 438 m 261 1124 q 355 1135 301 1135 q 459 1116 408 1135 q 531 1078 510 1097 l 550 1058 l 726 1146 l 836 964 q 802 931 828 951 q 750 897 776 911 q 588 863 679 863 q 490 881 538 863 q 419 918 443 900 l 397 936 l 226 846 l 115 1031 q 261 1124 158 1096 z "},"ö":{"ha":946,"x_min":40,"x_max":906,"o":"m 500 -12 l 444 -12 q 141 88 242 -12 q 40 410 40 188 q 141 733 40 632 q 444 835 242 835 l 500 835 q 804 733 703 835 q 906 410 906 632 q 805 88 906 188 q 500 -12 704 -12 m 433 421 l 433 304 q 444 275 433 286 q 472 264 454 264 q 501 275 489 264 q 513 304 513 286 l 513 421 q 501 449 513 438 q 472 461 489 461 q 444 449 456 461 q 433 421 433 438 m 338 863 l 257 863 q 171 890 196 863 q 146 974 146 918 q 171 1058 146 1029 q 257 1086 196 1086 l 338 1086 q 446 974 446 1086 q 338 863 446 863 m 694 863 l 615 863 q 529 890 554 863 q 504 974 504 918 q 529 1058 504 1029 q 615 1086 554 1086 l 694 1086 q 804 974 804 1086 q 694 863 804 863 z "},"÷":{"ha":821,"x_min":19,"x_max":800,"o":"m 19 601 l 800 601 l 800 356 l 19 356 l 19 601 m 409 -12 q 356 -12 409 -12 q 258 26 303 -12 q 214 152 214 64 q 259 277 214 240 q 409 314 304 314 q 559 277 514 314 q 604 152 604 240 q 560 26 604 64 q 409 -12 515 -12 m 409 646 q 356 646 409 646 q 258 684 303 646 q 214 810 214 722 q 259 934 214 897 q 409 971 304 971 q 559 934 514 971 q 604 810 604 897 q 560 684 604 722 q 409 646 515 646 z "},"ø":{"ha":946,"x_min":40,"x_max":906,"o":"m 906 410 q 817 102 906 203 q 553 -10 729 1 l 539 -87 q 454 -97 517 -97 q 341 -85 392 -97 q 275 -58 290 -72 l 260 -46 l 268 13 q 40 410 40 83 q 133 724 40 622 q 413 832 226 825 l 431 919 q 516 929 454 929 q 628 916 578 929 q 694 890 679 903 l 711 878 l 694 803 q 906 410 906 719 m 433 421 l 433 304 q 444 275 433 286 q 472 264 454 264 q 501 275 489 264 q 513 304 513 286 l 513 421 q 501 449 513 438 q 472 461 489 461 q 444 449 456 461 q 433 421 433 438 z "},"ù":{"ha":946,"x_min":40,"x_max":906,"o":"m 513 821 l 906 821 l 906 0 l 556 0 l 542 101 q 517 64 536 86 q 475 26 497 42 q 314 -14 414 -14 q 109 61 178 -14 q 40 278 40 136 l 40 821 l 433 821 l 433 364 q 445 335 433 347 q 474 324 457 324 q 501 335 490 324 q 513 364 513 347 l 513 821 m 690 861 l 256 861 l 256 1081 l 690 1042 l 690 861 z "},"ú":{"ha":946,"x_min":40,"x_max":906,"o":"m 513 821 l 906 821 l 906 0 l 556 0 l 542 101 q 517 64 536 86 q 475 26 497 42 q 314 -14 414 -14 q 109 61 178 -14 q 40 278 40 136 l 40 821 l 433 821 l 433 364 q 445 335 433 347 q 474 324 457 324 q 501 335 490 324 q 513 364 513 347 l 513 821 m 693 861 l 258 861 l 258 1042 l 693 1081 l 693 861 z "},"û":{"ha":946,"x_min":40,"x_max":906,"o":"m 513 821 l 906 821 l 906 0 l 556 0 l 542 101 q 517 64 536 86 q 475 26 497 42 q 314 -14 414 -14 q 109 61 178 -14 q 40 278 40 136 l 40 821 l 433 821 l 433 364 q 445 335 433 347 q 474 324 457 324 q 501 335 490 324 q 513 364 513 347 l 513 821 m 689 861 l 254 861 l 254 1042 l 689 1081 l 689 861 z "},"ü":{"ha":946,"x_min":40,"x_max":906,"o":"m 513 821 l 906 821 l 906 0 l 556 0 l 542 101 q 517 64 536 86 q 475 26 497 42 q 314 -14 414 -14 q 109 61 178 -14 q 40 278 40 136 l 40 821 l 433 821 l 433 364 q 445 335 433 347 q 474 324 457 324 q 501 335 490 324 q 513 364 513 347 l 513 821 m 336 863 l 256 863 q 169 890 194 863 q 144 974 144 918 q 169 1058 144 1029 q 256 1086 194 1086 l 336 1086 q 444 974 444 1086 q 336 863 444 863 m 693 863 l 614 863 q 528 890 553 863 q 503 974 503 918 q 528 1058 503 1029 q 614 1086 553 1086 l 693 1086 q 803 974 803 1086 q 693 863 803 863 z "},"ý":{"ha":910,"x_min":19,"x_max":890,"o":"m 443 324 l 479 324 l 504 821 l 890 821 l 768 -129 l 329 -129 l 360 14 q 185 51 240 14 q 117 176 131 88 l 19 821 l 415 821 l 443 324 m 676 861 l 242 861 l 242 1042 l 676 1081 l 676 861 z "},"þ":{"ha":946,"x_min":40,"x_max":906,"o":"m 567 -14 q 454 14 493 -14 l 454 -129 l 40 -129 l 40 960 l 410 960 l 424 765 q 488 803 436 785 q 597 822 539 822 q 830 709 754 822 q 906 403 906 596 q 817 99 906 211 q 567 -14 729 -14 m 454 421 l 454 304 q 465 275 454 286 q 494 264 476 264 q 523 275 511 264 q 535 304 535 286 l 535 421 q 523 449 535 438 q 494 461 511 461 q 465 449 476 461 q 454 421 454 438 z "},"ÿ":{"ha":910,"x_min":19,"x_max":890,"o":"m 443 324 l 479 324 l 504 821 l 890 821 l 768 -129 l 329 -129 l 360 14 q 185 51 240 14 q 117 176 131 88 l 19 821 l 415 821 l 443 324 m 326 863 l 246 863 q 160 890 185 863 q 135 974 135 918 q 160 1058 135 1029 q 246 1086 185 1086 l 326 1086 q 435 974 435 1086 q 326 863 435 863 m 683 863 l 604 863 q 518 890 543 863 q 493 974 493 918 q 518 1058 493 1029 q 604 1086 543 1086 l 683 1086 q 793 974 793 1086 q 683 863 793 863 z "},"ı":{"ha":494,"x_min":40,"x_max":454,"o":"m 40 0 l 40 821 l 454 821 l 454 0 l 40 0 z "},"Ł":{"ha":660,"x_min":0,"x_max":639,"o":"m 19 960 l 499 960 l 499 733 l 553 740 l 553 513 l 499 504 l 499 357 l 639 357 l 639 0 l 19 0 l 19 440 l 0 439 l 0 667 l 19 669 l 19 960 z "},"ł":{"ha":507,"x_min":10,"x_max":486,"o":"m 40 1035 l 457 1035 l 457 729 l 486 733 l 486 504 l 457 500 l 457 357 l 486 357 l 486 15 q 281 -14 413 -14 q 95 40 150 -14 q 40 204 40 94 l 40 444 l 10 440 l 10 669 l 40 674 l 40 1035 z "},"Œ":{"ha":1464,"x_min":40,"x_max":1424,"o":"m 536 517 l 536 356 q 547 326 536 338 q 575 315 558 315 q 603 327 592 315 q 615 356 615 339 l 615 517 q 603 544 615 533 q 575 556 592 556 q 547 544 558 556 q 536 517 536 533 m 1424 357 l 1424 0 l 790 0 q 633 -14 711 -14 l 518 -14 q 155 109 269 -14 q 40 485 40 232 q 155 856 40 738 q 518 974 269 974 l 633 974 q 790 960 696 974 l 1413 960 l 1413 556 l 1113 556 l 1113 500 l 1413 500 l 1413 413 l 1113 413 l 1113 357 l 1424 357 z "},"œ":{"ha":1336,"x_min":40,"x_max":1297,"o":"m 908 357 l 908 300 q 1008 292 942 292 q 1238 311 1143 292 l 1267 318 l 1267 47 q 1231 30 1256 40 q 1115 3 1207 19 q 908 -14 1024 -14 q 699 19 792 -14 q 500 -12 614 -12 l 444 -12 q 141 88 242 -12 q 40 410 40 188 q 141 733 40 632 q 444 835 242 835 l 500 835 q 699 800 617 835 q 908 835 786 835 q 1211 746 1125 835 q 1297 454 1297 657 l 1290 357 l 908 357 m 433 421 l 433 304 q 444 275 433 286 q 472 264 454 264 q 501 275 489 264 q 513 304 513 286 l 513 421 q 501 449 513 438 q 472 461 489 461 q 444 449 456 461 q 433 421 433 438 m 906 457 l 906 419 l 985 419 l 985 457 q 974 485 985 474 q 945 496 963 496 q 917 485 928 496 q 906 457 906 475 z "},"Š":{"ha":960,"x_min":40,"x_max":939,"o":"m 511 974 q 724 959 625 974 q 867 929 824 944 l 908 914 l 908 517 q 600 568 796 568 l 600 532 q 860 460 781 518 q 939 283 939 401 q 824 64 939 142 q 468 -14 708 -14 q 225 2 331 -14 q 83 33 119 18 l 46 50 l 46 396 q 83 381 58 390 q 195 356 108 371 q 382 340 282 340 l 382 374 q 126 446 213 386 q 40 654 40 506 q 158 888 40 803 q 511 974 276 974 m 482 1168 l 671 1265 l 744 1082 l 482 1006 l 218 1082 l 289 1265 l 482 1168 z "},"š":{"ha":821,"x_min":40,"x_max":786,"o":"m 417 835 q 615 822 526 835 q 736 797 703 810 l 768 785 l 768 438 q 486 486 674 486 l 486 453 q 722 393 658 436 q 786 236 786 350 q 701 54 786 122 q 406 -14 617 -14 q 206 -1 293 -14 q 86 24 118 11 l 54 36 l 54 338 q 174 302 93 318 q 342 286 256 286 l 342 319 q 117 388 193 333 q 40 563 40 442 q 133 760 40 685 q 417 835 226 835 m 415 1025 l 604 1122 l 678 939 l 415 863 l 151 939 l 222 1122 l 415 1025 z "},"Ť":{"ha":896,"x_min":21,"x_max":876,"o":"m 21 556 l 21 960 l 876 960 l 876 556 l 707 556 l 707 0 l 188 0 l 188 556 l 21 556 m 451 1150 l 640 1247 l 714 1064 l 451 988 l 188 1064 l 258 1247 l 451 1150 z "},"Ÿ":{"ha":1104,"x_min":19,"x_max":1085,"o":"m 813 0 l 292 0 l 292 226 q 238 250 253 243 q 188 279 222 257 q 138 325 154 301 q 79 479 92 388 l 19 960 l 511 960 l 546 485 l 576 485 l 606 960 l 1085 960 l 1025 479 q 967 325 1013 388 q 916 279 950 301 q 867 250 882 257 q 813 226 851 243 l 813 0 m 424 992 l 343 992 q 257 1019 282 992 q 232 1103 232 1047 q 257 1187 232 1158 q 343 1215 282 1215 l 424 1215 q 532 1103 532 1215 q 424 992 532 992 m 781 992 l 701 992 q 615 1019 640 992 q 590 1103 590 1047 q 615 1187 590 1158 q 701 1215 640 1215 l 781 1215 q 890 1103 890 1215 q 781 992 890 992 z "},"Ž":{"ha":914,"x_min":40,"x_max":874,"o":"m 874 0 l 47 0 l 47 357 l 260 556 l 40 556 l 40 960 l 869 960 l 869 554 l 665 357 l 874 357 l 874 0 m 463 1136 l 651 1233 l 725 1050 l 463 974 l 199 1050 l 269 1233 l 463 1136 z "},"ž":{"ha":789,"x_min":40,"x_max":749,"o":"m 749 0 l 40 0 l 40 357 l 231 453 l 40 453 l 40 821 l 749 821 l 749 453 l 554 357 l 749 357 l 749 0 m 397 1008 l 586 1106 l 660 922 l 397 846 l 133 922 l 204 1106 l 397 1008 z "},"ƒ":{"ha":636,"x_min":29,"x_max":596,"o":"m 83 185 l 83 308 l 29 308 l 29 651 l 92 683 q 60 803 60 729 q 354 1057 60 1057 q 492 1048 432 1057 q 575 1031 553 1039 l 596 1022 l 596 744 l 449 744 l 449 683 l 596 683 l 596 308 l 496 308 l 496 93 q 477 -28 496 28 q 439 -106 458 -83 l 421 -129 l 38 19 q 83 185 83 71 z "},"ˆ":{"ha":646,"x_min":60,"x_max":586,"o":"m 513 974 l 324 1071 l 131 974 l 60 1156 l 324 1233 l 586 1156 l 513 974 z "},"ˇ":{"ha":646,"x_min":60,"x_max":586,"o":"m 324 1136 l 513 1233 l 586 1050 l 324 974 l 60 1050 l 131 1233 l 324 1136 z "},"˘":{"ha":721,"x_min":64,"x_max":657,"o":"m 557 1022 q 542 1014 557 1022 q 473 995 526 1007 q 359 983 419 983 q 246 994 299 983 q 161 1022 193 1006 q 74 1083 99 1056 l 64 1094 l 189 1239 q 208 1216 190 1233 q 267 1178 225 1199 q 360 1158 310 1158 q 455 1179 411 1158 q 517 1221 499 1200 l 536 1242 l 657 1094 q 617 1058 647 1081 q 557 1022 588 1036 z "},"˙":{"ha":761,"x_min":199,"x_max":563,"o":"m 364 1243 l 397 1243 q 520 1213 478 1243 q 563 1108 563 1182 q 520 1002 563 1033 q 397 971 478 971 l 364 971 q 241 1002 283 971 q 199 1108 199 1033 q 241 1213 199 1182 q 364 1243 283 1243 z "},"˚":{"ha":761,"x_min":139,"x_max":622,"o":"m 304 1243 l 457 1243 q 622 1108 622 1243 q 457 971 622 971 l 304 971 q 139 1108 139 971 q 304 1243 139 1243 m 350 1068 l 417 1068 q 449 1100 449 1068 q 417 1132 449 1132 l 350 1132 q 315 1103 315 1132 q 350 1068 315 1068 z "},"˛":{"ha":475,"x_min":119,"x_max":356,"o":"m 290 -33 q 356 -22 319 -33 l 356 -110 q 246 -129 322 -129 q 119 -43 119 -129 q 193 28 119 28 l 231 28 q 290 -33 231 -33 z "},"˜":{"ha":896,"x_min":88,"x_max":808,"o":"m 233 1119 q 327 1131 274 1131 q 431 1111 381 1131 q 503 1072 482 1092 l 522 1054 l 699 1142 l 808 960 q 774 927 800 947 q 722 894 749 907 q 560 858 651 858 q 463 876 510 858 q 392 914 415 894 l 369 932 l 199 842 l 88 1026 q 233 1119 131 1092 z "},"˝":{"ha":892,"x_min":65,"x_max":826,"o":"m 421 999 l 65 999 l 65 1160 l 421 1218 l 421 999 m 826 999 l 471 999 l 471 1160 l 826 1218 l 826 999 z "},"π":{"ha":1071,"x_min":57,"x_max":1015,"o":"m 369 851 q 560 846 418 851 q 836 840 701 840 q 971 893 971 840 l 971 896 l 1015 896 l 1015 890 q 971 751 1015 799 q 831 707 924 707 l 804 707 q 785 710 796 710 q 782 665 785 683 q 779 383 779 531 l 779 308 q 794 108 779 146 q 856 71 810 71 q 928 122 901 71 q 961 292 954 172 l 1007 292 l 1007 282 q 960 61 1007 133 q 804 -10 911 -10 q 656 66 697 -10 q 614 374 614 142 q 618 521 614 400 l 622 715 q 528 717 600 717 l 383 721 q 340 138 383 283 q 189 -10 299 -10 q 57 207 57 -10 l 57 242 l 103 242 q 121 167 107 190 q 172 143 140 143 q 281 256 249 143 q 319 721 313 368 l 278 721 q 165 695 206 721 q 115 622 124 669 l 71 622 q 143 800 78 750 q 369 851 204 851 z "},"–":{"ha":725,"x_min":32,"x_max":693,"o":"m 32 336 l 32 638 l 693 638 l 693 336 l 32 336 z "},"—":{"ha":924,"x_min":32,"x_max":892,"o":"m 32 336 l 32 638 l 892 638 l 892 336 l 32 336 z "},"‘":{"ha":518,"x_min":28,"x_max":490,"o":"m 490 638 q 437 493 490 538 q 258 449 383 449 q 80 498 132 449 q 28 674 28 547 q 69 889 28 800 q 135 994 107 968 l 147 1006 l 468 1006 l 354 800 q 490 638 490 800 z "},"’":{"ha":518,"x_min":28,"x_max":490,"o":"m 28 860 q 81 1004 28 960 q 260 1049 135 1049 q 438 999 386 1049 q 490 824 490 950 q 447 608 490 696 q 383 506 411 531 l 371 493 l 50 493 l 165 697 q 28 860 28 697 z "},"‚":{"ha":610,"x_min":28,"x_max":582,"o":"m 28 228 q 91 400 28 347 q 303 453 154 453 q 517 399 453 453 q 582 228 582 346 q 563 61 582 149 q 524 -75 543 -26 l 504 -124 l 92 -124 l 143 13 q 28 228 28 56 z "},"“":{"ha":1008,"x_min":28,"x_max":981,"o":"m 490 638 q 437 493 490 538 q 258 449 383 449 q 80 498 132 449 q 28 674 28 547 q 69 889 28 800 q 135 994 107 968 l 147 1006 l 468 1006 l 354 800 q 490 638 490 800 m 981 638 q 928 492 981 536 q 749 449 875 449 q 570 498 622 449 q 518 674 518 547 q 561 889 518 800 q 625 994 597 968 l 638 1006 l 960 1006 l 844 800 q 981 638 981 800 z "},"”":{"ha":1008,"x_min":28,"x_max":981,"o":"m 518 860 q 572 1004 518 960 q 751 1049 625 1049 q 928 999 876 1049 q 981 824 981 950 q 906 544 981 665 q 875 506 888 517 l 863 493 l 540 493 l 656 697 q 518 860 518 697 m 28 860 q 81 1004 28 960 q 260 1049 135 1049 q 438 999 386 1049 q 490 824 490 950 q 447 608 490 696 q 383 506 411 531 l 371 493 l 50 493 l 165 697 q 28 860 28 697 z "},"„":{"ha":1204,"x_min":28,"x_max":1176,"o":"m 28 228 q 91 400 28 347 q 303 453 154 453 q 517 399 453 453 q 582 228 582 346 q 563 61 582 149 q 524 -75 543 -26 l 504 -124 l 92 -124 l 143 13 q 28 228 28 56 m 622 228 q 685 400 622 347 q 898 453 749 453 q 1112 400 1047 453 q 1176 228 1176 347 q 1157 61 1176 149 q 1118 -75 1138 -26 l 1099 -124 l 685 -124 l 738 13 q 622 228 622 56 z "},"†":{"ha":679,"x_min":40,"x_max":639,"o":"m 186 953 q 330 971 221 971 q 493 953 439 971 l 493 765 l 615 765 q 639 601 639 710 q 622 468 639 511 l 615 453 l 503 453 l 457 64 q 364 42 424 42 q 236 58 265 42 l 226 64 l 176 453 l 64 453 q 40 576 40 503 q 58 749 40 694 l 64 765 l 186 765 l 186 953 z "},"‡":{"ha":679,"x_min":40,"x_max":639,"o":"m 186 953 q 330 971 221 971 q 493 953 439 971 l 493 765 l 639 765 q 622 617 639 661 l 615 601 l 64 601 q 40 765 40 651 l 186 765 l 186 953 m 40 560 l 639 560 q 617 419 639 472 l 608 403 l 503 403 l 457 18 q 367 -4 424 -4 q 226 18 274 -4 l 176 403 l 69 403 q 40 560 40 461 z "},"•":{"ha":681,"x_min":32,"x_max":650,"o":"m 32 449 q 104 666 32 594 q 340 738 176 738 q 575 666 503 738 q 650 443 647 594 l 650 429 q 577 213 650 283 q 340 142 504 142 q 104 213 176 142 q 32 440 32 285 l 32 449 z "},"…":{"ha":1774,"x_min":28,"x_max":1746,"o":"m 888 -12 q 813 -12 888 -12 q 674 42 738 -12 q 611 222 611 97 q 675 400 611 347 q 888 453 739 453 q 1101 400 1038 453 q 1165 222 1165 347 q 1102 42 1165 97 q 888 -12 1039 -12 m 303 -12 q 228 -12 303 -12 q 90 42 153 -12 q 28 222 28 97 q 91 400 28 347 q 303 453 154 453 q 517 399 453 453 q 582 222 582 346 q 518 42 582 97 q 303 -12 454 -12 m 1467 -12 q 1392 -12 1467 -12 q 1254 42 1317 -12 q 1192 222 1192 97 q 1255 400 1192 347 q 1467 453 1318 453 q 1681 399 1617 453 q 1746 222 1746 346 q 1682 42 1746 97 q 1467 -12 1618 -12 z "},"‰":{"ha":2511,"x_min":40,"x_max":2471,"o":"m 1172 1021 l 983 -46 l 636 -46 l 826 1021 l 1172 1021 m 1108 340 q 1108 430 1108 340 q 1188 606 1108 519 q 1437 693 1268 693 q 1688 606 1606 693 q 1769 340 1769 519 q 1689 74 1769 161 q 1438 -12 1608 -12 q 1188 74 1268 -12 q 1108 340 1108 161 m 40 619 q 40 708 40 619 q 120 884 40 797 q 369 971 200 971 q 619 884 538 971 q 701 619 701 797 q 620 353 701 440 q 369 267 539 267 q 120 353 200 267 q 40 619 40 440 m 350 581 l 435 581 q 463 592 451 581 q 475 620 475 603 q 463 649 475 638 q 435 660 451 660 l 350 660 q 322 649 333 660 q 310 620 310 638 q 322 592 310 603 q 350 581 333 581 m 1417 301 l 1501 301 q 1530 313 1518 301 q 1542 342 1542 325 q 1530 371 1542 360 q 1501 382 1518 382 l 1417 382 q 1388 371 1400 382 q 1376 342 1376 360 q 1388 313 1376 325 q 1417 301 1400 301 m 1810 340 q 1810 430 1810 340 q 1890 606 1810 519 q 2138 693 1969 693 q 2389 606 2307 693 q 2471 340 2471 519 q 2390 74 2471 161 q 2140 -12 2310 -12 q 1890 74 1969 -12 q 1810 340 1810 161 m 2117 301 l 2203 301 q 2231 313 2219 301 q 2242 342 2242 325 q 2231 371 2242 360 q 2203 382 2219 382 l 2117 382 q 2089 370 2100 382 q 2078 342 2078 358 q 2090 313 2078 325 q 2117 301 2101 301 z "},"‹":{"ha":667,"x_min":32,"x_max":628,"o":"m 32 324 l 32 618 l 628 864 l 628 500 l 411 471 l 628 425 l 628 78 l 32 324 z "},"›":{"ha":667,"x_min":40,"x_max":636,"o":"m 636 618 l 636 324 l 40 78 l 40 425 l 256 471 l 40 500 l 40 864 l 636 618 z "},"⁄":{"ha":560,"x_min":13,"x_max":549,"o":"m 350 -97 q 247 -110 322 -110 q 111 -94 172 -110 q 31 -61 50 -78 l 13 -46 l 211 1072 q 313 1085 239 1085 q 449 1069 388 1085 q 531 1036 511 1053 l 549 1021 l 350 -97 z "},"€":{"ha":1003,"x_min":40,"x_max":964,"o":"m 639 556 l 639 511 l 821 511 l 821 475 l 639 475 l 639 439 l 821 439 l 821 403 l 639 403 l 639 361 q 736 357 667 357 q 939 374 867 357 l 964 379 l 964 33 q 830 1 928 15 q 622 -14 732 -14 q 264 91 393 -14 q 114 403 135 196 l 40 403 l 40 439 l 110 439 l 110 475 l 40 475 l 40 511 l 110 511 q 246 861 117 749 q 624 974 375 974 q 816 961 731 974 q 933 936 901 949 l 964 924 l 964 536 q 639 556 882 556 z "},"™":{"ha":1039,"x_min":29,"x_max":1008,"o":"m 1008 960 l 1008 496 l 776 496 l 776 664 l 740 564 l 719 564 l 681 664 l 681 496 l 468 496 l 468 960 l 681 960 l 719 821 l 740 821 l 776 960 l 1008 960 m 29 960 l 429 960 l 429 739 l 354 739 l 354 496 l 99 496 l 99 739 l 29 739 l 29 960 z "},"Ω":{"ha":1488,"x_min":89,"x_max":1394,"o":"m 1150 175 q 1281 211 1250 175 q 1322 343 1314 239 l 1367 343 l 1367 0 l 836 0 l 836 351 q 1075 500 986 381 q 1164 796 1164 619 q 1049 1126 1164 1004 q 743 1247 935 1247 q 437 1125 551 1247 q 322 796 322 1003 q 407 500 322 619 q 650 351 496 381 l 650 0 l 117 0 l 117 343 l 163 343 q 203 211 169 244 q 333 175 235 175 l 574 175 l 574 290 q 217 465 346 332 q 89 796 89 601 q 268 1172 89 1026 q 742 1317 447 1317 q 1216 1174 1038 1317 q 1394 796 1394 1031 q 1266 464 1394 597 q 910 290 1138 331 l 910 175 l 1150 175 z "},"∂":{"ha":888,"x_min":88,"x_max":817,"o":"m 665 554 q 689 842 689 640 q 567 1168 689 1168 q 467 1100 529 1168 q 364 1033 408 1033 q 286 1094 286 1033 q 343 1192 286 1150 q 486 1233 404 1233 q 726 1092 636 1233 q 817 711 817 951 q 692 179 817 394 q 383 -32 565 -32 q 169 68 253 -32 q 88 335 88 169 q 190 618 88 501 q 435 735 294 735 q 578 692 521 735 q 665 554 631 649 m 232 244 q 396 13 232 13 q 564 131 500 13 q 632 431 632 250 q 588 611 632 550 q 465 675 544 675 q 297 556 361 675 q 232 244 232 440 z "},"∆":{"ha":1174,"x_min":43,"x_max":1140,"o":"m 1140 0 l 43 0 l 569 1283 l 611 1283 l 1140 0 m 179 85 l 892 85 l 536 964 l 179 85 z "},"∏":{"ha":1488,"x_min":-100,"x_max":1399,"o":"m 74 -282 l 74 1436 l -100 1436 l -100 1514 l 1399 1514 l 1399 1436 l 1225 1436 l 1225 -282 l 1399 -282 l 1399 -360 l 883 -360 l 883 -282 l 1047 -282 l 1047 1436 l 253 1436 l 253 -282 l 415 -282 l 415 -360 l -100 -360 l -100 -282 l 74 -282 z "},"∑":{"ha":1196,"x_min":33,"x_max":1075,"o":"m 1025 936 q 697 1215 1000 1215 l 329 1215 l 799 701 l 799 671 l 294 189 l 868 189 q 989 221 957 189 q 1029 356 1018 253 l 1075 356 l 1075 0 l 33 0 l 33 54 l 624 622 l 60 1243 l 60 1289 l 1071 1289 l 1071 936 l 1025 936 z "},"−":{"ha":625,"x_min":32,"x_max":594,"o":"m 32 336 l 32 638 l 594 638 l 594 336 l 32 336 z "},"√":{"ha":1121,"x_min":117,"x_max":1303,"o":"m 1303 1510 l 1192 1510 l 625 -19 l 564 -19 l 260 821 l 142 779 l 117 854 l 385 947 l 629 272 l 1122 1601 l 1303 1601 l 1303 1510 z "},"∞":{"ha":1764,"x_min":19,"x_max":1744,"o":"m 1275 981 q 1629 859 1514 981 q 1744 486 1744 738 q 1631 111 1744 235 q 1275 -12 1517 -12 q 879 165 989 -12 q 485 -12 774 -12 q 132 110 244 -12 q 19 485 19 233 q 132 859 19 738 q 485 981 244 981 q 879 804 772 981 q 1275 981 989 981 m 458 447 l 660 447 l 660 486 q 648 515 660 504 q 619 526 636 526 l 458 526 q 431 515 442 526 q 419 488 419 504 q 431 459 419 471 q 458 447 443 447 m 1140 447 l 1301 447 q 1328 459 1317 447 q 1340 488 1340 471 q 1329 515 1340 504 q 1301 526 1318 526 l 1100 526 l 1100 486 q 1112 459 1100 471 q 1140 447 1124 447 z "},"∫":{"ha":1081,"x_min":125,"x_max":993,"o":"m 468 244 q 471 338 469 283 q 478 537 472 392 q 503 846 483 682 q 568 1109 524 1010 q 683 1265 613 1208 q 830 1321 753 1321 q 950 1285 907 1321 q 993 1199 993 1249 q 967 1126 993 1150 q 894 1103 944 1103 q 814 1163 844 1103 q 761 1224 788 1224 q 651 632 667 1224 l 646 443 q 554 -249 626 -90 q 438 -412 510 -353 q 290 -471 365 -471 q 169 -434 214 -471 q 125 -349 125 -397 q 218 -253 125 -253 q 301 -314 274 -253 q 361 -374 332 -374 q 468 244 451 -374 z "},"≈":{"ha":800,"x_min":40,"x_max":761,"o":"m 186 750 q 280 761 226 761 q 384 742 333 761 q 456 703 435 722 l 475 685 l 651 772 l 761 590 q 726 558 753 578 q 675 525 700 538 q 513 489 606 489 q 415 507 463 489 q 344 544 368 525 l 322 563 l 151 472 l 40 657 q 186 750 83 722 m 120 422 q 132 428 120 422 q 185 446 144 435 q 280 457 226 457 q 384 438 333 457 q 456 400 435 419 l 475 382 l 651 468 l 761 286 q 726 253 753 274 q 675 219 700 233 q 513 185 606 185 q 415 203 463 185 q 344 240 368 222 l 322 258 l 151 169 l 40 354 q 73 388 50 368 q 120 422 96 408 z "},"≠":{"ha":832,"x_min":50,"x_max":758,"o":"m 758 157 l 525 157 l 496 0 q 394 -12 468 -12 q 258 3 319 -12 q 178 36 196 19 l 158 51 l 176 157 l 50 157 l 50 449 l 231 449 l 242 522 l 50 522 l 50 814 l 294 814 l 326 985 q 428 997 354 997 q 565 981 503 997 q 644 950 626 965 l 664 933 l 642 814 l 758 814 l 758 522 l 590 522 l 576 449 l 758 449 l 758 157 z "},"≤":{"ha":642,"x_min":40,"x_max":601,"o":"m 40 54 l 40 318 l 601 318 l 601 54 l 40 54 m 40 514 l 40 758 l 601 943 l 601 661 l 356 636 l 601 597 l 601 329 l 40 514 z "},"≥":{"ha":642,"x_min":40,"x_max":601,"o":"m 601 318 l 601 54 l 40 54 l 40 318 l 601 318 m 601 758 l 601 514 l 40 329 l 40 597 l 286 636 l 40 661 l 40 943 l 601 758 z "},"◊":{"ha":749,"x_min":32,"x_max":717,"o":"m 32 467 l 310 869 l 431 869 l 717 467 l 435 75 l 314 75 l 32 467 z "},"":{"ha":3232,"x_min":397,"x_max":2835,"o":"m 2103 782 l 2107 969 q 2078 1019 2107 1019 q 2043 969 2043 1019 q 2049 890 2043 949 q 2054 782 2054 832 l 1829 782 q 1846 1206 1829 1085 l 1851 1246 l 2001 1246 q 2014 1099 2014 1163 l 2019 1118 q 2053 1190 2029 1158 q 2176 1253 2097 1253 q 2287 1207 2254 1253 q 2322 1053 2319 1161 l 2326 782 l 2103 782 m 632 782 l 401 782 q 418 1315 401 1086 l 424 1392 l 611 1392 q 632 782 632 1121 m 2594 1253 q 2783 1188 2732 1253 q 2835 1010 2835 1122 q 2774 835 2835 899 q 2594 771 2714 771 q 2415 835 2475 771 q 2356 1007 2356 899 q 2594 1253 2356 1253 m 2549 982 q 2549 953 2549 982 q 2595 925 2549 925 q 2642 982 2642 925 q 2595 1039 2642 1039 q 2549 982 2549 1039 m 932 1253 q 1163 1031 1163 1253 l 1163 782 l 1011 782 l 993 897 q 947 802 981 833 q 838 771 913 771 q 716 826 763 771 q 669 1002 669 882 q 731 1188 669 1122 q 932 1253 793 1253 m 922 925 q 969 982 969 925 q 922 1039 969 1039 q 879 985 879 1039 q 891 941 879 957 q 922 925 903 925 m 1632 721 q 1745 663 1703 721 q 1788 485 1788 604 q 1722 297 1788 367 q 1535 228 1656 228 q 1539 144 1539 199 l 1288 144 q 1303 642 1288 464 l 1308 706 l 1464 706 q 1478 556 1478 604 q 1632 721 1506 721 m 1497 443 q 1506 389 1497 417 q 1556 410 1532 389 q 1581 461 1581 431 q 1543 503 1581 503 q 1497 443 1497 503 m 2043 410 q 2044 406 2043 410 q 2068 388 2046 401 q 2141 375 2090 375 q 2228 406 2192 375 l 2228 260 q 2085 228 2186 228 q 1887 292 1953 228 q 1821 468 1821 357 q 2065 721 1821 721 q 2228 660 2168 721 q 2288 494 2288 600 q 2278 424 2288 453 l 2040 424 q 2043 410 2040 418 m 2028 472 l 2106 472 q 2107 489 2107 479 q 2071 526 2107 526 q 2028 472 2028 526 m 1229 897 l 1233 1068 l 1188 1068 l 1188 1233 l 1418 1306 l 1426 1246 l 1768 1246 q 1783 782 1783 1121 l 1557 782 q 1561 1068 1557 1001 l 1447 1068 l 1451 943 q 1473 939 1456 939 q 1507 947 1490 939 l 1507 804 q 1468 781 1503 792 q 1385 771 1433 771 q 1229 897 1229 771 m 1671 1271 q 1646 1271 1671 1271 q 1587 1306 1621 1271 q 1553 1391 1553 1342 q 1587 1475 1553 1440 q 1671 1510 1621 1510 q 1754 1475 1721 1510 q 1788 1391 1788 1440 q 1754 1306 1788 1342 q 1671 1271 1721 1271 m 447 356 l 451 518 l 397 518 l 397 683 l 638 763 l 646 706 l 974 706 q 969 494 969 503 q 1001 443 969 443 q 1031 494 1031 443 l 1026 706 l 1238 706 q 1249 417 1249 590 q 1178 210 1249 275 q 951 144 1107 144 q 844 155 890 144 q 782 175 797 165 l 767 186 l 767 351 q 892 314 817 314 q 1003 332 968 314 q 1046 367 1039 350 l 1053 385 q 939 356 1031 356 q 754 503 754 356 l 754 518 l 665 518 l 669 397 q 725 410 706 397 l 725 263 q 592 228 689 228 q 447 356 447 228 m 2440 650 q 2425 625 2440 631 l 2440 600 l 2424 600 l 2410 622 l 2396 622 l 2396 600 l 2379 600 l 2379 674 l 2411 674 q 2440 650 2440 674 m 2411 636 q 2425 648 2425 636 q 2411 660 2425 660 l 2396 660 l 2396 636 l 2411 636 m 2408 563 q 2393 563 2408 563 q 2356 584 2378 563 q 2333 635 2333 606 q 2356 688 2333 665 q 2408 710 2378 710 q 2459 688 2438 710 q 2481 635 2481 665 q 2459 584 2481 606 q 2408 563 2438 563 m 2365 677 q 2356 668 2365 677 q 2347 636 2347 660 q 2365 594 2347 613 q 2407 576 2383 576 q 2449 594 2431 576 q 2467 636 2467 613 q 2449 677 2467 660 q 2407 694 2431 694 q 2365 677 2383 694 z "},"ﬁ":{"ha":1132,"x_min":29,"x_max":1092,"o":"m 60 803 q 354 1057 60 1057 q 492 1048 432 1057 q 575 1031 553 1039 l 596 1022 l 596 744 l 449 744 l 449 683 l 596 683 l 596 308 l 496 308 l 496 0 l 83 0 l 83 308 l 29 308 l 29 651 l 92 683 q 60 803 60 729 m 883 753 q 831 753 883 753 q 728 794 778 753 q 678 928 678 836 q 728 1060 678 1019 q 883 1100 779 1100 q 1092 932 1092 1100 q 1040 794 1092 836 q 883 753 989 753 m 678 0 l 678 721 l 1092 721 l 1092 0 l 678 0 z "},"ﬂ":{"ha":1142,"x_min":29,"x_max":1122,"o":"m 60 803 q 354 1057 60 1057 q 492 1048 432 1057 q 575 1031 553 1039 l 596 1022 l 596 744 l 449 744 l 449 683 l 596 683 l 596 308 l 496 308 l 496 0 l 83 0 l 83 308 l 29 308 l 29 651 l 92 683 q 60 803 60 729 m 676 204 l 676 1035 l 1093 1035 l 1093 357 l 1122 357 l 1122 15 q 917 -14 1049 -14 q 731 40 786 -14 q 676 204 676 94 z "}}}
